<svg xmlns="http://www.w3.org/2000/svg" xmlns:xlink="http://www.w3.org/1999/xlink" width="120" zoomAndPan="magnify" viewBox="0 0 90 89.999999" height="120" preserveAspectRatio="xMidYMid meet" version="1.0"><rect x="-9" width="108" fill="#ffffff" y="-9" height="107.999999" fill-opacity="1"/><rect x="-9" width="108" fill="#ffffff" y="-9" height="107.999999" fill-opacity="1"/><path fill="#24b6e9" d="M 45 90 C 69.851562 90 90 69.851562 90 45 C 90 20.148438 69.851562 0 45 0 C 20.148438 0 0 20.148438 0 45 C 0 69.851562 20.148438 90 45 90 Z M 45 90 " fill-opacity="1" fill-rule="nonzero"/><path fill="#ffffff" d="M 34.917969 26.300781 L 60.230469 41.769531 C 61.457031 42.5625 62.25 43.96875 62.25 45.375 C 62.25 46.871094 61.457031 48.277344 60.230469 48.980469 L 34.917969 64.449219 C 33.597656 65.238281 31.925781 65.328125 30.609375 64.535156 C 29.292969 63.832031 28.5 62.425781 28.5 60.84375 L 28.5 29.90625 C 28.5 28.410156 29.292969 27.003906 30.609375 26.300781 C 31.925781 25.511719 33.597656 25.511719 34.917969 26.300781 Z M 34.917969 26.300781 " fill-opacity="1" fill-rule="nonzero"/></svg>