<svg xmlns="http://www.w3.org/2000/svg" xmlns:xlink="http://www.w3.org/1999/xlink" width="70" zoomAndPan="magnify" viewBox="0 0 52.5 52.499999" height="70" preserveAspectRatio="xMidYMid meet" version="1.0"><defs><clipPath id="345deb2e55"><path d="M 0 0 L 52.003906 0 L 52.003906 52.003906 L 0 52.003906 Z M 0 0 " clip-rule="nonzero"/></clipPath><clipPath id="e2ba51d8f8"><path d="M 16 14.859375 L 37 14.859375 L 37 37.144531 L 16 37.144531 Z M 16 14.859375 " clip-rule="nonzero"/></clipPath></defs><g clip-path="url(#345deb2e55)"><path fill="#24b6e9" d="M 26.003906 0 C 26.855469 0 27.703125 0.0429688 28.550781 0.125 C 29.398438 0.207031 30.238281 0.332031 31.074219 0.5 C 31.910156 0.664062 32.734375 0.871094 33.550781 1.121094 C 34.367188 1.367188 35.167969 1.652344 35.953125 1.980469 C 36.738281 2.304688 37.507812 2.667969 38.261719 3.070312 C 39.011719 3.472656 39.742188 3.910156 40.449219 4.382812 C 41.15625 4.855469 41.839844 5.363281 42.5 5.902344 C 43.15625 6.441406 43.785156 7.015625 44.390625 7.617188 C 44.992188 8.21875 45.5625 8.847656 46.101562 9.507812 C 46.644531 10.164062 47.148438 10.847656 47.621094 11.554688 C 48.09375 12.265625 48.53125 12.992188 48.933594 13.746094 C 49.335938 14.496094 49.699219 15.265625 50.027344 16.050781 C 50.351562 16.839844 50.636719 17.640625 50.886719 18.453125 C 51.132812 19.269531 51.339844 20.09375 51.503906 20.929688 C 51.671875 21.765625 51.796875 22.605469 51.878906 23.453125 C 51.964844 24.300781 52.003906 25.152344 52.003906 26.003906 C 52.003906 26.855469 51.964844 27.703125 51.878906 28.550781 C 51.796875 29.398438 51.671875 30.238281 51.503906 31.074219 C 51.339844 31.910156 51.132812 32.734375 50.886719 33.550781 C 50.636719 34.367188 50.351562 35.167969 50.027344 35.953125 C 49.699219 36.738281 49.335938 37.507812 48.933594 38.261719 C 48.53125 39.011719 48.09375 39.742188 47.621094 40.449219 C 47.148438 41.15625 46.644531 41.839844 46.101562 42.5 C 45.5625 43.15625 44.992188 43.785156 44.390625 44.390625 C 43.785156 44.992188 43.15625 45.5625 42.5 46.101562 C 41.839844 46.644531 41.15625 47.148438 40.449219 47.621094 C 39.742188 48.09375 39.011719 48.53125 38.261719 48.933594 C 37.507812 49.335938 36.738281 49.699219 35.953125 50.027344 C 35.167969 50.351562 34.367188 50.636719 33.550781 50.886719 C 32.734375 51.132812 31.910156 51.339844 31.074219 51.503906 C 30.238281 51.671875 29.398438 51.796875 28.550781 51.878906 C 27.703125 51.964844 26.855469 52.003906 26.003906 52.003906 C 25.152344 52.003906 24.300781 51.964844 23.453125 51.878906 C 22.605469 51.796875 21.765625 51.671875 20.929688 51.503906 C 20.09375 51.339844 19.269531 51.132812 18.453125 50.886719 C 17.640625 50.636719 16.839844 50.351562 16.050781 50.027344 C 15.265625 49.699219 14.496094 49.335938 13.746094 48.933594 C 12.992188 48.53125 12.265625 48.09375 11.554688 47.621094 C 10.847656 47.148438 10.164062 46.644531 9.507812 46.101562 C 8.847656 45.5625 8.21875 44.992188 7.617188 44.390625 C 7.015625 43.785156 6.441406 43.15625 5.902344 42.5 C 5.363281 41.839844 4.855469 41.15625 4.382812 40.449219 C 3.910156 39.742188 3.472656 39.011719 3.070312 38.261719 C 2.667969 37.507812 2.304688 36.738281 1.980469 35.953125 C 1.652344 35.167969 1.367188 34.367188 1.121094 33.550781 C 0.871094 32.734375 0.664062 31.910156 0.5 31.074219 C 0.332031 30.238281 0.207031 29.398438 0.125 28.550781 C 0.0429688 27.703125 0 26.855469 0 26.003906 C 0 25.152344 0.0429688 24.300781 0.125 23.453125 C 0.207031 22.605469 0.332031 21.765625 0.5 20.929688 C 0.664062 20.09375 0.871094 19.269531 1.121094 18.453125 C 1.367188 17.640625 1.652344 16.839844 1.980469 16.050781 C 2.304688 15.265625 2.667969 14.496094 3.070312 13.746094 C 3.472656 12.992188 3.910156 12.265625 4.382812 11.554688 C 4.855469 10.847656 5.363281 10.164062 5.902344 9.507812 C 6.441406 8.847656 7.015625 8.21875 7.617188 7.617188 C 8.21875 7.015625 8.847656 6.441406 9.507812 5.902344 C 10.164062 5.363281 10.847656 4.855469 11.554688 4.382812 C 12.265625 3.910156 12.992188 3.472656 13.746094 3.070312 C 14.496094 2.667969 15.265625 2.304688 16.050781 1.980469 C 16.839844 1.652344 17.640625 1.367188 18.453125 1.121094 C 19.269531 0.871094 20.09375 0.664062 20.929688 0.5 C 21.765625 0.332031 22.605469 0.207031 23.453125 0.125 C 24.300781 0.0429688 25.152344 0 26.003906 0 Z M 26.003906 0 " fill-opacity="1" fill-rule="nonzero"/></g><g clip-path="url(#e2ba51d8f8)"><path fill="#ffffff" d="M 34.914062 17.632812 L 33.84375 17.632812 C 33.769531 17.441406 33.582031 17.308594 33.367188 17.308594 C 33.160156 17.308594 33.078125 17.148438 33.058594 17.101562 C 33.039062 17.054688 32.984375 16.882812 33.132812 16.738281 C 33.226562 16.640625 33.28125 16.515625 33.28125 16.378906 C 33.28125 16.242188 33.226562 16.113281 33.132812 16.019531 L 32.714844 15.601562 C 32.519531 15.40625 32.195312 15.40625 31.996094 15.601562 C 31.851562 15.75 31.683594 15.695312 31.632812 15.675781 C 31.585938 15.65625 31.425781 15.574219 31.425781 15.367188 C 31.425781 15.085938 31.199219 14.859375 30.917969 14.859375 L 30.332031 14.859375 C 30.050781 14.859375 29.824219 15.085938 29.824219 15.367188 C 29.824219 15.574219 29.664062 15.65625 29.617188 15.675781 C 29.566406 15.695312 29.398438 15.75 29.253906 15.601562 C 29.054688 15.40625 28.730469 15.40625 28.535156 15.601562 L 28.117188 16.019531 C 28.023438 16.113281 27.96875 16.242188 27.96875 16.378906 C 27.96875 16.515625 28.023438 16.640625 28.117188 16.738281 C 28.265625 16.882812 28.210938 17.054688 28.191406 17.101562 C 28.171875 17.148438 28.089844 17.308594 27.882812 17.308594 C 27.667969 17.308594 27.480469 17.441406 27.410156 17.632812 L 18.042969 17.632812 C 17.105469 17.632812 16.34375 18.394531 16.34375 19.332031 L 16.34375 30.394531 C 16.34375 31.332031 17.105469 32.09375 18.042969 32.09375 L 23.480469 32.09375 C 23.464844 33.140625 23.214844 34.195312 22.929688 34.832031 L 21.792969 34.832031 C 21.152344 34.832031 20.632812 35.351562 20.632812 35.988281 C 20.632812 36.625 21.152344 37.144531 21.792969 37.144531 L 30.800781 37.144531 C 31.4375 37.144531 31.957031 36.625 31.957031 35.988281 C 31.957031 35.351562 31.4375 34.832031 30.800781 34.832031 L 29.65625 34.832031 C 29.359375 34.1875 29.089844 33.128906 29.066406 32.09375 L 34.546875 32.09375 C 35.484375 32.09375 36.246094 31.332031 36.246094 30.394531 L 36.246094 18.964844 C 36.246094 18.230469 35.648438 17.632812 34.914062 17.632812 Z M 28.003906 17.933594 C 28.347656 17.890625 28.636719 17.671875 28.773438 17.34375 C 28.910156 17.015625 28.859375 16.65625 28.648438 16.382812 L 28.898438 16.132812 C 29.171875 16.34375 29.527344 16.394531 29.859375 16.257812 C 30.1875 16.121094 30.40625 15.835938 30.445312 15.488281 L 30.804688 15.488281 C 30.84375 15.835938 31.0625 16.121094 31.390625 16.257812 C 31.722656 16.394531 32.078125 16.34375 32.351562 16.132812 L 32.605469 16.382812 C 32.390625 16.65625 32.339844 17.015625 32.476562 17.34375 C 32.613281 17.671875 32.902344 17.890625 33.246094 17.933594 L 33.246094 18.289062 C 32.902344 18.328125 32.613281 18.546875 32.476562 18.875 C 32.339844 19.207031 32.390625 19.5625 32.605469 19.835938 L 32.351562 20.089844 C 32.078125 19.875 31.722656 19.824219 31.390625 19.960938 C 31.0625 20.097656 30.84375 20.386719 30.804688 20.730469 L 30.445312 20.730469 C 30.40625 20.386719 30.1875 20.097656 29.859375 19.960938 C 29.53125 19.824219 29.171875 19.875 28.898438 20.089844 L 28.648438 19.835938 C 28.859375 19.5625 28.910156 19.207031 28.773438 18.875 C 28.636719 18.546875 28.347656 18.328125 28.003906 18.289062 Z M 18.042969 18.265625 L 27.375 18.265625 L 27.375 18.402344 C 27.375 18.683594 27.601562 18.914062 27.882812 18.914062 C 28.089844 18.914062 28.171875 19.070312 28.191406 19.117188 C 28.210938 19.167969 28.265625 19.335938 28.117188 19.480469 C 27.921875 19.679688 27.921875 20.003906 28.117188 20.203125 L 28.535156 20.617188 C 28.730469 20.816406 29.054688 20.816406 29.253906 20.617188 C 29.398438 20.46875 29.570312 20.523438 29.617188 20.542969 C 29.664062 20.5625 29.824219 20.644531 29.824219 20.851562 C 29.824219 21.132812 30.050781 21.363281 30.332031 21.363281 L 30.917969 21.363281 C 31.199219 21.363281 31.425781 21.132812 31.425781 20.851562 C 31.425781 20.644531 31.585938 20.566406 31.632812 20.542969 C 31.683594 20.523438 31.851562 20.46875 31.996094 20.617188 C 32.195312 20.816406 32.519531 20.816406 32.714844 20.617188 L 33.132812 20.203125 C 33.332031 20.003906 33.332031 19.679688 33.132812 19.480469 C 32.984375 19.335938 33.039062 19.167969 33.058594 19.117188 C 33.078125 19.070312 33.160156 18.914062 33.367188 18.914062 C 33.648438 18.914062 33.875 18.683594 33.875 18.402344 L 33.875 18.265625 L 34.914062 18.265625 C 35.300781 18.265625 35.613281 18.578125 35.613281 18.964844 L 35.613281 28.710938 L 16.976562 28.710938 L 16.976562 19.332031 C 16.976562 18.742188 17.453125 18.265625 18.042969 18.265625 Z M 31.324219 35.988281 C 31.324219 36.277344 31.089844 36.515625 30.800781 36.515625 L 21.792969 36.515625 C 21.5 36.515625 21.265625 36.277344 21.265625 35.988281 C 21.265625 35.699219 21.5 35.460938 21.792969 35.460938 L 30.800781 35.460938 C 31.089844 35.460938 31.324219 35.699219 31.324219 35.988281 Z M 28.96875 34.832031 L 23.613281 34.832031 C 23.910156 34.058594 24.101562 33.03125 24.113281 32.09375 L 28.433594 32.09375 C 28.457031 33.019531 28.660156 34.046875 28.96875 34.832031 Z M 34.546875 31.460938 L 18.042969 31.460938 C 17.453125 31.460938 16.976562 30.984375 16.976562 30.394531 L 16.976562 29.34375 L 35.613281 29.34375 L 35.613281 30.394531 C 35.613281 30.984375 35.136719 31.460938 34.546875 31.460938 Z M 27.371094 30.402344 C 27.371094 30.578125 27.230469 30.71875 27.054688 30.71875 L 25.535156 30.71875 C 25.359375 30.71875 25.21875 30.578125 25.21875 30.402344 C 25.21875 30.226562 25.359375 30.085938 25.535156 30.085938 L 27.054688 30.085938 C 27.230469 30.085938 27.371094 30.226562 27.371094 30.402344 Z M 30.625 19.835938 C 31.578125 19.835938 32.351562 19.0625 32.351562 18.109375 C 32.351562 17.15625 31.578125 16.382812 30.625 16.382812 C 29.671875 16.382812 28.898438 17.15625 28.898438 18.109375 C 28.898438 19.0625 29.671875 19.835938 30.625 19.835938 Z M 30.625 17.015625 C 31.230469 17.015625 31.71875 17.507812 31.71875 18.109375 C 31.71875 18.714844 31.230469 19.203125 30.625 19.203125 C 30.023438 19.203125 29.53125 18.714844 29.53125 18.109375 C 29.53125 17.507812 30.023438 17.015625 30.625 17.015625 Z M 19.097656 24.453125 C 19.328125 24.453125 19.519531 24.582031 19.605469 24.792969 C 19.695312 25.007812 19.648438 25.230469 19.488281 25.394531 C 19.378906 25.503906 19.320312 25.648438 19.320312 25.800781 C 19.320312 25.953125 19.378906 26.097656 19.488281 26.207031 L 20.042969 26.761719 C 20.265625 26.984375 20.628906 26.984375 20.851562 26.761719 C 21.015625 26.597656 21.242188 26.554688 21.453125 26.640625 C 21.667969 26.730469 21.796875 26.921875 21.796875 27.152344 C 21.796875 27.46875 22.050781 27.722656 22.367188 27.722656 L 23.152344 27.722656 C 23.46875 27.722656 23.726562 27.46875 23.726562 27.152344 C 23.726562 26.921875 23.851562 26.730469 24.066406 26.640625 C 24.28125 26.554688 24.503906 26.597656 24.667969 26.761719 C 24.777344 26.867188 24.921875 26.929688 25.074219 26.929688 C 25.226562 26.929688 25.371094 26.867188 25.480469 26.761719 L 26.03125 26.207031 C 26.140625 26.097656 26.199219 25.953125 26.199219 25.800781 C 26.199219 25.648438 26.140625 25.503906 26.03125 25.394531 C 25.871094 25.234375 25.824219 25.007812 25.914062 24.792969 C 26.003906 24.582031 26.191406 24.453125 26.421875 24.453125 C 26.738281 24.453125 26.996094 24.195312 26.996094 23.878906 L 26.996094 23.097656 C 26.996094 22.78125 26.738281 22.523438 26.421875 22.523438 C 26.191406 22.523438 26.003906 22.394531 25.914062 22.179688 C 25.824219 21.96875 25.871094 21.742188 26.03125 21.582031 C 26.257812 21.355469 26.257812 20.992188 26.03125 20.769531 L 25.480469 20.214844 C 25.253906 19.992188 24.890625 19.992188 24.667969 20.214844 C 24.503906 20.378906 24.28125 20.421875 24.066406 20.332031 C 23.851562 20.246094 23.726562 20.054688 23.726562 19.824219 C 23.726562 19.507812 23.46875 19.25 23.152344 19.25 L 22.367188 19.25 C 22.050781 19.25 21.796875 19.507812 21.796875 19.824219 C 21.796875 20.054688 21.667969 20.246094 21.453125 20.332031 C 21.242188 20.421875 21.015625 20.378906 20.851562 20.214844 C 20.628906 19.992188 20.265625 19.992188 20.042969 20.214844 L 19.488281 20.769531 C 19.265625 20.992188 19.265625 21.355469 19.488281 21.582031 C 19.648438 21.742188 19.695312 21.96875 19.605469 22.179688 C 19.519531 22.394531 19.328125 22.523438 19.097656 22.523438 C 18.78125 22.523438 18.523438 22.78125 18.523438 23.097656 L 18.523438 23.878906 C 18.523438 24.195312 18.78125 24.453125 19.097656 24.453125 Z M 19.15625 23.152344 C 19.617188 23.132812 20.011719 22.855469 20.191406 22.421875 C 20.371094 21.992188 20.285156 21.519531 19.972656 21.175781 L 20.449219 20.703125 C 20.789062 21.011719 21.261719 21.097656 21.695312 20.917969 C 22.128906 20.738281 22.402344 20.34375 22.425781 19.882812 L 23.09375 19.882812 C 23.117188 20.34375 23.390625 20.738281 23.824219 20.917969 C 24.257812 21.097656 24.730469 21.011719 25.074219 20.703125 L 25.546875 21.175781 C 25.234375 21.519531 25.152344 21.992188 25.332031 22.421875 C 25.511719 22.855469 25.902344 23.132812 26.363281 23.152344 L 26.363281 23.824219 C 25.902344 23.84375 25.511719 24.121094 25.332031 24.550781 C 25.152344 24.984375 25.234375 25.457031 25.546875 25.800781 L 25.074219 26.273438 C 24.730469 25.960938 24.257812 25.878906 23.824219 26.058594 C 23.390625 26.238281 23.117188 26.628906 23.09375 27.09375 L 22.425781 27.09375 C 22.402344 26.628906 22.128906 26.238281 21.695312 26.058594 C 21.261719 25.878906 20.789062 25.960938 20.449219 26.273438 L 19.972656 25.800781 C 20.285156 25.457031 20.371094 24.984375 20.191406 24.550781 C 20.011719 24.121094 19.617188 23.84375 19.15625 23.824219 Z M 22.761719 25.6875 C 23.972656 25.6875 24.960938 24.699219 24.960938 23.488281 C 24.960938 22.273438 23.972656 21.289062 22.761719 21.289062 C 21.546875 21.289062 20.5625 22.273438 20.5625 23.488281 C 20.5625 24.699219 21.546875 25.6875 22.761719 25.6875 Z M 22.761719 21.917969 C 23.625 21.917969 24.328125 22.625 24.328125 23.488281 C 24.328125 24.351562 23.625 25.054688 22.761719 25.054688 C 21.894531 25.054688 21.191406 24.351562 21.191406 23.488281 C 21.191406 22.625 21.894531 21.917969 22.761719 21.917969 Z M 28.007812 27.410156 C 28.007812 27.234375 28.148438 27.09375 28.324219 27.09375 L 31.304688 27.09375 C 31.480469 27.09375 31.621094 27.234375 31.621094 27.410156 C 31.621094 27.582031 31.480469 27.722656 31.304688 27.722656 L 28.324219 27.722656 C 28.148438 27.722656 28.007812 27.582031 28.007812 27.410156 Z M 28.007812 23.488281 C 28.007812 23.3125 28.148438 23.171875 28.324219 23.171875 L 34.285156 23.171875 C 34.460938 23.171875 34.601562 23.3125 34.601562 23.488281 C 34.601562 23.664062 34.460938 23.804688 34.285156 23.804688 L 28.324219 23.804688 C 28.148438 23.804688 28.007812 23.664062 28.007812 23.488281 Z M 28.007812 25.449219 C 28.007812 25.273438 28.148438 25.132812 28.324219 25.132812 L 34.285156 25.132812 C 34.460938 25.132812 34.601562 25.273438 34.601562 25.449219 C 34.601562 25.621094 34.460938 25.765625 34.285156 25.765625 L 28.324219 25.765625 C 28.148438 25.765625 28.007812 25.621094 28.007812 25.449219 Z M 28.007812 25.449219 " fill-opacity="1" fill-rule="nonzero"/></g></svg>