 <svg  version="1.0" xmlns="http://www.w3.org/2000/svg"  width="300.000000pt" height="524.000000pt" viewBox="0 0 300.000000 524.000000"  preserveAspectRatio="xMidYMid meet">  <g transform="translate(0.000000,524.000000) scale(0.100000,-0.100000)" fill="#845ae7" stroke="none"> <path d="M1520 4875 l0 -175 35 0 35 0 0 175 0 175 -35 0 -35 0 0 -175z"/> <path d="M2088 4883 c-15 -43 -41 -116 -57 -163 -17 -47 -31 -86 -31 -87 0 -1 13 -8 30 -16 35 -18 34 -19 65 76 13 40 37 109 53 155 l30 82 -28 15 c-16 8 -31 15 -33 15 -2 0 -15 -35 -29 -77z"/> <path d="M890 4907 c-34 -15 -36 -17 -24 -25 6 -4 42 -70 79 -147 37 -77 67 -141 68 -142 8 -8 57 13 57 24 0 20 -139 303 -148 302 -4 0 -18 -5 -32 -12z"/> <path d="M2519 4579 c-46 -60 -93 -121 -104 -135 l-20 -26 24 -19 c13 -11 27 -18 32 -17 4 2 52 62 107 134 l101 132 -25 21 c-13 11 -26 21 -27 21 -2 0 -41 -50 -88 -111z m69 21 c-12 -16 -23 -30 -25 -30 -2 0 4 14 14 30 9 17 21 30 25 30 5 0 -1 -13 -14 -30z"/> <path d="M432 4615 c-12 -9 -22 -20 -22 -25 0 -6 46 -68 102 -139 101 -128 102 -129 125 -113 12 10 23 22 23 28 0 6 -26 42 -57 80 -32 38 -71 87 -88 108 -64 83 -58 78 -83 61z"/> <path d="M1423 4480 c-105 -9 -211 -38 -336 -91 -73 -31 -209 -108 -227 -129 -3 -4 -15 -13 -28 -22 -75 -51 -193 -182 -264 -293 -85 -133 -126 -235 -172 -437 -33 -140 -17 -369 39 -554 31 -106 123 -282 167 -324 48 -45 135 -14 158 55 11 32 8 41 -48 147 -96 181 -122 285 -122 481 0 108 5 150 26 232 34 137 123 314 193 387 9 9 39 40 66 68 91 95 227 181 358 227 262 92 589 62 805 -74 29 -18 57 -33 62 -33 6 0 10 -4 10 -8 0 -4 13 -15 28 -24 47 -28 172 -159 222 -233 239 -357 224 -792 -39 -1149 -55 -75 -64 -113 -35 -155 21 -30 71 -51 106 -44 68 13 199 209 274 412 61 163 83 429 49 604 -82 428 -390 778 -800 910 -142 45 -316 62 -492 47z m317 -41 c102 -16 258 -68 343 -115 15 -8 27 -12 27 -7 0 4 4 3 8 -2 4 -6 45 -37 91 -70 90 -62 211 -174 211 -194 0 -7 4 -10 9 -7 5 3 11 -1 15 -9 3 -8 23 -39 45 -68 45 -60 132 -223 123 -231 -3 -3 -1 -6 5 -6 5 0 10 -6 11 -12 1 -7 15 -62 33 -123 28 -100 31 -124 32 -265 1 -85 -1 -171 -5 -190 -25 -118 -54 -222 -71 -255 -6 -11 -12 -26 -13 -33 -4 -20 -75 -146 -88 -154 -6 -4 -7 -8 -3 -8 8 0 -3 -15 -34 -48 -9 -9 -22 -27 -28 -40 -13 -24 -67 -62 -88 -62 -22 0 -53 39 -53 65 0 15 28 68 69 128 56 83 95 152 106 187 1 3 9 22 18 44 9 21 17 45 17 53 0 8 4 23 10 33 5 10 13 42 17 72 10 68 10 311 1 363 -11 54 -16 80 -18 80 -1 0 -4 11 -6 25 -8 41 -54 151 -90 213 -19 32 -34 60 -34 63 0 2 -8 12 -17 22 -10 11 -33 38 -52 61 -67 83 -186 191 -210 191 -6 0 -11 4 -11 8 0 20 -233 127 -300 138 -14 2 -47 9 -75 15 -63 12 -314 13 -363 0 -20 -5 -50 -12 -67 -14 -37 -6 -162 -53 -192 -73 -13 -8 -23 -11 -23 -7 0 5 -4 3 -8 -3 -4 -6 -33 -26 -64 -43 -78 -44 -226 -186 -284 -273 -27 -40 -52 -75 -55 -78 -7 -6 -23 -53 -20 -59 2 -2 -1 -7 -6 -10 -11 -7 -57 -122 -71 -176 -37 -140 -40 -356 -8 -473 8 -29 14 -53 14 -55 -1 -1 9 -33 21 -70 23 -67 55 -132 96 -193 30 -45 23 -98 -15 -114 -40 -17 -65 -5 -101 46 -33 49 -97 181 -102 211 -1 10 -5 23 -9 28 -6 9 -27 87 -44 160 -4 17 -9 98 -11 180 -7 254 39 420 180 650 21 35 113 149 152 189 112 113 357 259 473 281 12 2 27 7 33 11 7 4 30 9 53 12 23 2 59 8 81 12 60 12 271 11 345 -1z"/> <path d="M1489 3924 l-24 -26 -3 -891 -2 -892 -276 -276 -275 -276 1 -358 1 -358 -42 -19 c-94 -42 -162 -122 -195 -228 -71 -230 151 -475 389 -429 121 23 214 95 263 202 23 52 28 75 27 142 0 67 -5 90 -27 137 -35 72 -102 140 -172 174 l-54 26 0 320 0 320 266 268 c147 147 270 274 275 281 5 8 9 429 9 935 l0 921 -26 27 c-37 36 -100 37 -135 0z m105 -30 c18 -17 18 -19 16 -124 -1 -41 -6 -76 -11 -78 -15 -6 -10 -32 7 -32 10 0 14 -7 12 -22 -2 -16 -9 -22 -22 -20 -18 3 -18 2 -2 -13 13 -14 16 -41 16 -173 0 -86 1 -426 2 -755 2 -328 0 -597 -4 -597 -4 0 -5 -6 -2 -13 3 -8 -61 -78 -152 -168 -86 -85 -170 -170 -187 -189 -18 -19 -62 -64 -98 -100 -106 -104 -98 -71 -100 -434 -1 -302 0 -320 19 -345 10 -14 27 -28 38 -30 10 -2 34 -15 54 -30 92 -68 133 -142 136 -246 4 -127 -59 -234 -172 -291 -48 -24 -69 -29 -133 -29 -66 0 -85 4 -141 32 -39 19 -73 45 -85 63 -11 16 -23 30 -27 30 -16 0 -51 100 -55 163 -10 120 44 219 157 289 38 24 74 53 80 66 6 14 10 147 10 360 1 284 3 340 16 357 8 11 129 135 269 276 237 238 255 258 262 300 4 24 6 47 5 51 -6 22 -2 1657 4 1673 17 47 57 60 88 29z"/> <path d="M958 696 c-57 -20 -85 -42 -115 -87 -23 -34 -27 -51 -26 -100 6 -208 287 -262 369 -71 23 54 14 143 -20 186 -52 68 -138 98 -208 72z m140 -53 c124 -93 72 -278 -82 -291 -45 -3 -56 0 -94 28 -136 99 -65 300 101 287 27 -3 60 -13 75 -24z"/> <path d="M1069 3625 c-15 -8 -32 -29 -38 -46 -7 -22 -11 -185 -11 -503 l0 -471 -174 -174 -173 -173 -64 23 c-177 64 -347 -6 -440 -181 -21 -39 -24 -59 -24 -140 1 -83 4 -101 27 -145 43 -81 93 -131 166 -167 58 -28 78 -32 148 -32 71 0 89 4 145 31 126 62 195 169 197 302 1 53 -4 90 -17 121 l-18 45 206 208 206 207 3 500 c2 340 -1 513 -8 541 -9 32 -18 43 -45 55 -42 17 -53 17 -86 -1z m76 -23 c33 -23 36 -61 35 -562 l-1 -498 -103 -102 c-57 -56 -109 -106 -117 -111 -8 -5 -11 -9 -6 -9 4 0 -27 -35 -70 -78 -112 -111 -117 -119 -100 -162 21 -55 27 -127 14 -180 -4 -19 -10 -44 -12 -55 -6 -24 -61 -104 -89 -128 -43 -37 -130 -70 -196 -75 -54 -3 -76 0 -127 21 -219 89 -274 361 -105 524 30 29 66 56 81 59 14 4 32 12 39 17 27 22 143 17 214 -8 l67 -23 40 29 c23 16 46 38 53 49 7 11 17 20 23 20 5 1 27 22 49 48 21 26 64 70 96 97 31 28 71 70 89 95 l31 45 0 473 0 473 25 24 c24 25 51 31 70 17z"/> <path d="M389 2117 c-59 -31 -83 -80 -82 -165 1 -67 16 -100 62 -139 60 -50 175 -50 229 0 12 11 22 16 22 11 1 -5 13 16 27 46 32 65 33 122 3 175 -21 38 -60 84 -60 71 0 -4 -10 0 -22 8 -35 25 -126 21 -179 -7z m166 -13 c57 -27 88 -78 89 -144 1 -48 -4 -63 -27 -93 -36 -48 -75 -67 -134 -67 -119 0 -190 123 -137 236 34 70 135 103 209 68z"/> <path d="M1961 3629 c-52 -21 -50 15 -51 -864 l0 -820 146 -146 c125 -126 145 -149 136 -165 -5 -11 -16 -47 -22 -81 -30 -150 47 -302 188 -374 69 -35 195 -39 275 -9 143 54 242 224 215 371 -26 144 -114 241 -257 285 -65 20 -116 17 -196 -11 l-70 -24 -117 117 -118 117 0 773 c0 511 -3 780 -10 793 -11 20 -60 49 -82 48 -7 0 -24 -5 -37 -10z m77 -39 c12 -12 22 -31 22 -43 1 -12 1 -332 0 -712 0 -379 3 -721 6 -758 5 -52 13 -75 30 -95 13 -15 28 -31 33 -37 50 -57 184 -175 199 -175 10 0 45 9 77 21 75 26 159 22 230 -11 46 -22 125 -80 108 -80 -4 0 0 -6 9 -12 24 -19 54 -77 63 -123 24 -119 -1 -206 -87 -295 -98 -104 -243 -127 -368 -58 -71 39 -111 82 -147 158 -24 49 -24 199 0 236 21 35 1 68 -121 193 -67 69 -130 137 -139 151 -15 22 -16 102 -17 818 l-1 794 22 24 c27 29 52 30 81 4z"/> <path d="M2441 1666 c-69 -26 -121 -102 -121 -177 0 -65 46 -137 108 -166 41 -20 168 -20 156 -1 -3 4 1 8 9 8 7 0 29 14 47 30 18 17 30 30 27 30 -4 0 -1 10 8 23 18 29 22 101 7 147 -12 35 -50 78 -88 98 -33 17 -116 22 -153 8z m148 -36 c83 -42 104 -175 38 -248 -74 -80 -216 -62 -262 34 -23 48 -17 130 13 171 44 62 138 81 211 43z"/> <path d="M1520 1619 c-57 -21 -60 -39 -60 -364 l0 -297 34 -34 c47 -47 96 -43 138 10 16 19 18 52 17 326 0 331 1 328 -56 359 -25 13 -38 13 -73 0z m79 -56 c20 -21 25 -556 5 -594 -23 -46 -78 -47 -95 -2 -14 38 -11 575 4 594 23 30 56 31 86 2z"/> <path d="M1874 1171 c-11 -5 -28 -21 -37 -35 -15 -22 -17 -61 -17 -323 0 -329 2 -340 60 -359 43 -14 85 -1 108 34 15 23 17 60 16 330 l-1 303 -24 24 c-27 28 -74 39 -105 26z m91 -58 c11 -14 14 -82 15 -290 0 -150 -2 -284 -6 -298 -8 -31 -50 -54 -84 -46 -43 11 -49 51 -48 341 0 261 3 283 33 314 18 18 70 6 90 -21z"/> </g> </svg> 