<svg xmlns="http://www.w3.org/2000/svg" xmlns:xlink="http://www.w3.org/1999/xlink" width="60" zoomAndPan="magnify" viewBox="0 0 45 44.999999" height="60" preserveAspectRatio="xMidYMid meet" version="1.0"><path fill="#084c7f" d="M 45 18.75 L 45 26.25 C 45 28.316406 43.316406 30 41.25 30 L 40.230469 30 C 38.796875 38.5 31.402344 45 22.5 45 C 21.671875 45 21 44.328125 21 43.5 C 21 42.671875 21.671875 42 22.5 42 C 30.769531 42 37.5 35.269531 37.5 27 L 37.5 18 C 37.5 9.730469 30.769531 3 22.5 3 C 14.230469 3 7.5 9.730469 7.5 18 L 7.5 28.5 C 7.5 29.328125 6.828125 30 6 30 L 3.75 30 C 1.683594 30 0 28.316406 0 26.25 L 0 18.75 C 0 16.683594 1.683594 15 3.75 15 L 4.769531 15 C 6.207031 6.5 13.597656 0 22.5 0 C 31.402344 0 38.796875 6.5 40.230469 15 L 41.25 15 C 43.316406 15 45 16.683594 45 18.75 Z M 22.5 6 C 15.882812 6 10.5 11.382812 10.5 18 L 10.5 25.5 C 10.5 32.117188 15.882812 37.5 22.5 37.5 C 29.117188 37.5 34.5 32.117188 34.5 25.5 L 34.5 18 C 34.5 11.382812 29.117188 6 22.5 6 Z M 22.5 6 " fill-opacity="1" fill-rule="nonzero"/></svg>