<svg xmlns="http://www.w3.org/2000/svg" xmlns:xlink="http://www.w3.org/1999/xlink" width="60" zoomAndPan="magnify" viewBox="0 0 45 44.999999" height="60" preserveAspectRatio="xMidYMid meet" version="1.0"><path fill="#084c7f" d="M 0.0898438 19.71875 L 0.0898438 43.035156 L 15.078125 31.375 Z M 0.0898438 19.71875 " fill-opacity="1" fill-rule="nonzero"/><path fill="#084c7f" d="M 39.199219 13.648438 L 39.199219 20.820312 L 43.625 17.375 Z M 39.199219 13.648438 " fill-opacity="1" fill-rule="nonzero"/><path fill="#084c7f" d="M 23.347656 0.308594 C 22.859375 -0.101562 22.140625 -0.101562 21.652344 0.308594 L 18.15625 3.25 L 26.84375 3.25 Z M 23.347656 0.308594 " fill-opacity="1" fill-rule="nonzero"/><path fill="#084c7f" d="M 5.800781 13.648438 L 1.375 17.375 L 5.800781 20.820312 Z M 5.800781 13.648438 " fill-opacity="1" fill-rule="nonzero"/><path fill="#084c7f" d="M 17.679688 32.695312 L 1.859375 45 L 43.140625 45 L 27.320312 32.695312 Z M 17.679688 32.695312 " fill-opacity="1" fill-rule="nonzero"/><path fill="#084c7f" d="M 29.921875 31.375 L 44.910156 43.035156 L 44.910156 19.71875 Z M 29.921875 31.375 " fill-opacity="1" fill-rule="nonzero"/><path fill="#084c7f" d="M 22.167969 15.765625 C 21.097656 15.765625 19.992188 16.804688 19.992188 18.542969 C 19.992188 20.3125 21.070312 21.5 22.078125 21.5 C 23.140625 21.5 24.011719 20.261719 24.074219 18.699219 L 24.074219 18.367188 C 24.027344 16.828125 23.257812 15.765625 22.167969 15.765625 Z M 22.167969 15.765625 " fill-opacity="1" fill-rule="nonzero"/><path fill="#084c7f" d="M 27.320312 30.058594 L 36.5625 22.871094 L 36.5625 7.207031 C 36.5625 6.480469 35.972656 5.886719 35.246094 5.886719 L 9.753906 5.886719 C 9.027344 5.886719 8.4375 6.480469 8.4375 7.207031 L 8.4375 22.871094 L 17.679688 30.058594 Z M 13.207031 21.085938 C 12.578125 18.691406 12.894531 16.167969 14.097656 13.980469 C 15.300781 11.792969 17.265625 10.175781 19.621094 9.421875 C 22.109375 8.632812 24.753906 8.863281 27.0625 10.082031 C 29.371094 11.296875 31.058594 13.34375 31.8125 15.839844 C 31.816406 15.855469 31.820312 15.867188 31.824219 15.882812 C 32.324219 17.757812 32.175781 19.53125 31.34375 21.628906 C 30.78125 23.046875 29.398438 24.558594 27.210938 24.558594 C 26.414062 24.558594 25.65625 24.234375 25.066406 23.644531 C 24.925781 23.503906 24.800781 23.351562 24.6875 23.1875 C 23.949219 23.789062 23.054688 24.136719 22.078125 24.136719 C 20.804688 24.136719 19.566406 23.519531 18.679688 22.441406 C 17.824219 21.402344 17.355469 20.015625 17.355469 18.542969 C 17.355469 17.0625 17.855469 15.695312 18.765625 14.6875 C 19.660156 13.695312 20.902344 13.128906 22.167969 13.128906 C 22.863281 13.128906 23.527344 13.292969 24.121094 13.605469 C 24.234375 12.996094 24.773438 12.535156 25.414062 12.535156 L 25.421875 12.535156 C 26.148438 12.539062 26.738281 13.128906 26.734375 13.859375 L 26.699219 21.183594 C 26.695312 21.40625 26.785156 21.632812 26.933594 21.78125 C 26.988281 21.835938 27.09375 21.921875 27.210938 21.921875 C 28.273438 21.921875 28.742188 21.035156 28.894531 20.652344 C 29.507812 19.105469 29.625 17.886719 29.28125 16.582031 C 28.730469 14.773438 27.507812 13.292969 25.832031 12.414062 C 24.15625 11.527344 22.234375 11.359375 20.421875 11.9375 C 16.855469 13.070312 14.804688 16.796875 15.757812 20.414062 C 16.546875 23.421875 19.261719 25.578125 22.363281 25.664062 C 23.089844 25.683594 23.664062 26.289062 23.644531 27.019531 C 23.625 27.734375 23.039062 28.300781 22.328125 28.300781 C 22.3125 28.300781 22.300781 28.300781 22.289062 28.300781 C 20.246094 28.242188 18.230469 27.519531 16.609375 26.257812 C 14.929688 24.945312 13.75 23.15625 13.207031 21.085938 Z M 13.207031 21.085938 " fill-opacity="1" fill-rule="nonzero"/></svg>