<svg xmlns="http://www.w3.org/2000/svg" xmlns:xlink="http://www.w3.org/1999/xlink" width="60" zoomAndPan="magnify" viewBox="0 0 45 44.999999" height="60" preserveAspectRatio="xMidYMid meet" version="1.0"><path fill="#084c7f" d="M 38.644531 42.351562 L 20.945312 32.980469 C 20.484375 32.738281 19.921875 32.769531 19.484375 33.066406 L 5.949219 42.4375 C 5.445312 42.789062 5.226562 43.425781 5.410156 44.015625 C 5.589844 44.597656 6.136719 45 6.75 45 L 37.980469 45 C 38.625 45 39.191406 44.5625 39.347656 43.929688 C 39.503906 43.304688 39.210938 42.652344 38.644531 42.351562 Z M 38.644531 42.351562 " fill-opacity="1" fill-rule="nonzero"/><path fill="#084c7f" d="M 44.566406 39.679688 L 40.402344 20.941406 C 40.300781 20.484375 39.980469 20.109375 39.542969 19.9375 C 39.105469 19.765625 38.613281 19.824219 38.230469 20.089844 L 24.691406 29.460938 C 24.289062 29.742188 24.058594 30.210938 24.089844 30.699219 C 24.117188 31.191406 24.402344 31.628906 24.835938 31.855469 L 42.53125 41.226562 C 42.742188 41.339844 42.964844 41.394531 43.191406 41.394531 C 43.492188 41.394531 43.792969 41.296875 44.042969 41.105469 C 44.480469 40.773438 44.683594 40.21875 44.566406 39.679688 Z M 44.566406 39.679688 " fill-opacity="1" fill-rule="nonzero"/><path fill="#084c7f" d="M 34.773438 17.863281 C 34.585938 17.273438 34.042969 16.875 33.429688 16.875 L 20.59375 16.875 C 18.257812 21.101562 14.804688 25.144531 13.382812 26.722656 C 12.585938 27.613281 11.441406 28.125 10.246094 28.125 C 9.050781 28.125 7.90625 27.613281 7.105469 26.722656 C 6.558594 26.113281 5.707031 25.136719 4.734375 23.929688 L 1.332031 39.246094 C 1.207031 39.8125 1.441406 40.394531 1.921875 40.714844 C 2.15625 40.875 2.433594 40.957031 2.703125 40.957031 C 2.984375 40.957031 3.265625 40.875 3.507812 40.707031 L 34.226562 19.433594 C 34.734375 19.089844 34.953125 18.449219 34.773438 17.863281 Z M 34.773438 17.863281 " fill-opacity="1" fill-rule="nonzero"/><path fill="#084c7f" d="M 10.246094 0 C 4.816406 0 0.402344 4.414062 0.402344 9.84375 C 0.402344 14.894531 8.296875 23.839844 9.199219 24.84375 C 9.464844 25.140625 9.84375 25.3125 10.246094 25.3125 C 10.644531 25.3125 11.023438 25.140625 11.292969 24.84375 C 12.191406 23.839844 20.089844 14.894531 20.089844 9.84375 C 20.089844 4.414062 15.671875 0 10.246094 0 Z M 10.246094 14.0625 C 7.917969 14.0625 6.027344 12.171875 6.027344 9.84375 C 6.027344 7.515625 7.917969 5.625 10.246094 5.625 C 12.574219 5.625 14.464844 7.515625 14.464844 9.84375 C 14.464844 12.171875 12.574219 14.0625 10.246094 14.0625 Z M 10.246094 14.0625 " fill-opacity="1" fill-rule="nonzero"/></svg>