<svg xmlns="http://www.w3.org/2000/svg" xmlns:xlink="http://www.w3.org/1999/xlink" width="80" zoomAndPan="magnify" viewBox="0 0 60 60" height="80" preserveAspectRatio="xMidYMid meet" version="1.0"><rect x="-6" width="72" fill="#ffffff" y="-6" height="72" fill-opacity="1"/><rect x="-6" width="72" fill="#ffffff" y="-6" height="72" fill-opacity="1"/><path fill="#24b6e9" d="M 7.5 0 L 52.5 0 C 52.992188 0 53.480469 0.046875 53.964844 0.144531 C 54.445312 0.238281 54.914062 0.382812 55.371094 0.570312 C 55.824219 0.757812 56.257812 0.992188 56.667969 1.265625 C 57.078125 1.539062 57.453125 1.847656 57.804688 2.195312 C 58.152344 2.542969 58.460938 2.921875 58.734375 3.332031 C 59.007812 3.742188 59.242188 4.175781 59.429688 4.628906 C 59.617188 5.085938 59.761719 5.554688 59.855469 6.035156 C 59.953125 6.519531 60 7.007812 60 7.5 L 60 52.5 C 60 52.992188 59.953125 53.480469 59.855469 53.964844 C 59.761719 54.445312 59.617188 54.914062 59.429688 55.371094 C 59.242188 55.824219 59.007812 56.257812 58.734375 56.667969 C 58.460938 57.078125 58.152344 57.453125 57.804688 57.804688 C 57.453125 58.152344 57.078125 58.460938 56.667969 58.734375 C 56.257812 59.007812 55.824219 59.242188 55.371094 59.429688 C 54.914062 59.617188 54.445312 59.761719 53.964844 59.855469 C 53.480469 59.953125 52.992188 60 52.5 60 L 7.5 60 C 7.007812 60 6.519531 59.953125 6.035156 59.855469 C 5.554688 59.761719 5.085938 59.617188 4.628906 59.429688 C 4.175781 59.242188 3.742188 59.007812 3.332031 58.734375 C 2.921875 58.460938 2.542969 58.152344 2.195312 57.804688 C 1.847656 57.453125 1.539062 57.078125 1.265625 56.667969 C 0.992188 56.257812 0.757812 55.824219 0.570312 55.371094 C 0.382812 54.914062 0.238281 54.445312 0.144531 53.964844 C 0.046875 53.480469 0 52.992188 0 52.5 L 0 7.5 C 0 7.007812 0.046875 6.519531 0.144531 6.035156 C 0.238281 5.554688 0.382812 5.085938 0.570312 4.628906 C 0.757812 4.175781 0.992188 3.742188 1.265625 3.332031 C 1.539062 2.921875 1.847656 2.542969 2.195312 2.195312 C 2.542969 1.847656 2.921875 1.539062 3.332031 1.265625 C 3.742188 0.992188 4.175781 0.757812 4.628906 0.570312 C 5.085938 0.382812 5.554688 0.238281 6.035156 0.144531 C 6.519531 0.046875 7.007812 0 7.5 0 Z M 7.5 0 " fill-opacity="1" fill-rule="nonzero"/><path fill="#ffffff" d="M 15.058594 28.144531 L 15.058594 43.691406 L 25.054688 35.917969 Z M 15.058594 28.144531 " fill-opacity="1" fill-rule="nonzero"/><path fill="#ffffff" d="M 41.132812 24.101562 L 41.132812 28.878906 L 44.085938 26.585938 Z M 41.132812 24.101562 " fill-opacity="1" fill-rule="nonzero"/><path fill="#ffffff" d="M 30.566406 15.207031 C 30.238281 14.929688 29.761719 14.929688 29.433594 15.207031 L 27.101562 17.167969 L 32.894531 17.167969 Z M 30.566406 15.207031 " fill-opacity="1" fill-rule="nonzero"/><path fill="#ffffff" d="M 18.867188 24.101562 L 15.914062 26.585938 L 18.867188 28.878906 Z M 18.867188 24.101562 " fill-opacity="1" fill-rule="nonzero"/><path fill="#ffffff" d="M 26.785156 36.796875 L 16.238281 45 L 43.761719 45 L 33.214844 36.796875 Z M 26.785156 36.796875 " fill-opacity="1" fill-rule="nonzero"/><path fill="#ffffff" d="M 34.945312 35.917969 L 44.941406 43.691406 L 44.941406 28.144531 Z M 34.945312 35.917969 " fill-opacity="1" fill-rule="nonzero"/><path fill="#ffffff" d="M 29.777344 25.507812 C 29.066406 25.507812 28.328125 26.203125 28.328125 27.363281 C 28.328125 28.542969 29.046875 29.335938 29.71875 29.335938 C 30.425781 29.335938 31.007812 28.507812 31.046875 27.464844 L 31.050781 27.246094 C 31.019531 26.21875 30.503906 25.507812 29.777344 25.507812 Z M 29.777344 25.507812 " fill-opacity="1" fill-rule="nonzero"/><path fill="#ffffff" d="M 33.214844 35.039062 L 39.375 30.246094 L 39.375 19.804688 C 39.375 19.320312 38.980469 18.925781 38.496094 18.925781 L 21.503906 18.925781 C 21.019531 18.925781 20.625 19.320312 20.625 19.804688 L 20.625 30.246094 L 26.785156 35.039062 Z M 23.804688 29.058594 C 23.382812 27.460938 23.59375 25.777344 24.398438 24.320312 C 25.203125 22.863281 26.507812 21.78125 28.082031 21.28125 C 29.742188 20.753906 31.503906 20.910156 33.042969 21.71875 C 34.582031 22.53125 35.707031 23.894531 36.207031 25.5625 C 36.210938 25.570312 36.214844 25.578125 36.214844 25.589844 C 36.550781 26.839844 36.453125 28.019531 35.894531 29.417969 C 35.519531 30.363281 34.597656 31.375 33.140625 31.375 C 32.609375 31.375 32.101562 31.15625 31.710938 30.761719 C 31.617188 30.667969 31.535156 30.566406 31.460938 30.460938 C 30.96875 30.859375 30.371094 31.09375 29.71875 31.09375 C 28.871094 31.09375 28.042969 30.679688 27.453125 29.960938 C 26.882812 29.265625 26.570312 28.34375 26.570312 27.363281 C 26.570312 26.375 26.902344 25.464844 27.511719 24.792969 C 28.105469 24.132812 28.933594 23.75 29.777344 23.75 C 30.242188 23.75 30.683594 23.863281 31.082031 24.070312 C 31.15625 23.664062 31.515625 23.355469 31.945312 23.355469 L 31.949219 23.355469 C 32.433594 23.359375 32.824219 23.753906 32.824219 24.238281 L 32.796875 29.121094 C 32.796875 29.273438 32.855469 29.421875 32.957031 29.523438 C 32.992188 29.558594 33.0625 29.617188 33.140625 29.617188 C 33.847656 29.617188 34.160156 29.023438 34.261719 28.769531 C 34.671875 27.738281 34.75 26.925781 34.523438 26.054688 C 34.152344 24.851562 33.335938 23.863281 32.222656 23.277344 C 31.101562 22.6875 29.820312 22.574219 28.613281 22.957031 C 26.234375 23.714844 24.871094 26.199219 25.503906 28.609375 C 26.03125 30.613281 27.84375 32.050781 29.90625 32.109375 C 30.394531 32.125 30.777344 32.527344 30.761719 33.011719 C 30.75 33.488281 30.359375 33.867188 29.882812 33.867188 C 29.875 33.867188 29.867188 33.867188 29.859375 33.867188 C 28.496094 33.828125 27.152344 33.34375 26.074219 32.503906 C 24.953125 31.632812 24.167969 30.4375 23.804688 29.058594 Z M 23.804688 29.058594 " fill-opacity="1" fill-rule="nonzero"/></svg>