<svg xmlns="http://www.w3.org/2000/svg" xmlns:xlink="http://www.w3.org/1999/xlink" width="80" zoomAndPan="magnify" viewBox="0 0 60 60" height="80" preserveAspectRatio="xMidYMid meet" version="1.0"><rect x="-6" width="72" fill="#ffffff" y="-6" height="72" fill-opacity="1"/><rect x="-6" width="72" fill="#ffffff" y="-6" height="72" fill-opacity="1"/><path fill="#24b6e9" d="M 7.5 0 L 52.5 0 C 52.992188 0 53.480469 0.046875 53.964844 0.144531 C 54.445312 0.238281 54.914062 0.382812 55.371094 0.570312 C 55.824219 0.757812 56.257812 0.992188 56.667969 1.265625 C 57.078125 1.539062 57.453125 1.847656 57.804688 2.195312 C 58.152344 2.542969 58.460938 2.921875 58.734375 3.332031 C 59.007812 3.742188 59.242188 4.175781 59.429688 4.628906 C 59.617188 5.085938 59.761719 5.554688 59.855469 6.035156 C 59.953125 6.519531 60 7.007812 60 7.5 L 60 52.5 C 60 52.992188 59.953125 53.480469 59.855469 53.964844 C 59.761719 54.445312 59.617188 54.914062 59.429688 55.371094 C 59.242188 55.824219 59.007812 56.257812 58.734375 56.667969 C 58.460938 57.078125 58.152344 57.453125 57.804688 57.804688 C 57.453125 58.152344 57.078125 58.460938 56.667969 58.734375 C 56.257812 59.007812 55.824219 59.242188 55.371094 59.429688 C 54.914062 59.617188 54.445312 59.761719 53.964844 59.855469 C 53.480469 59.953125 52.992188 60 52.5 60 L 7.5 60 C 7.007812 60 6.519531 59.953125 6.035156 59.855469 C 5.554688 59.761719 5.085938 59.617188 4.628906 59.429688 C 4.175781 59.242188 3.742188 59.007812 3.332031 58.734375 C 2.921875 58.460938 2.542969 58.152344 2.195312 57.804688 C 1.847656 57.453125 1.539062 57.078125 1.265625 56.667969 C 0.992188 56.257812 0.757812 55.824219 0.570312 55.371094 C 0.382812 54.914062 0.238281 54.445312 0.144531 53.964844 C 0.046875 53.480469 0 52.992188 0 52.5 L 0 7.5 C 0 7.007812 0.046875 6.519531 0.144531 6.035156 C 0.238281 5.554688 0.382812 5.085938 0.570312 4.628906 C 0.757812 4.175781 0.992188 3.742188 1.265625 3.332031 C 1.539062 2.921875 1.847656 2.542969 2.195312 2.195312 C 2.542969 1.847656 2.921875 1.539062 3.332031 1.265625 C 3.742188 0.992188 4.175781 0.757812 4.628906 0.570312 C 5.085938 0.382812 5.554688 0.238281 6.035156 0.144531 C 6.519531 0.046875 7.007812 0 7.5 0 Z M 7.5 0 " fill-opacity="1" fill-rule="nonzero"/><path fill="#ffffff" d="M 40.761719 43.234375 L 28.960938 36.988281 C 28.65625 36.824219 28.28125 36.847656 27.988281 37.042969 L 18.964844 43.292969 C 18.628906 43.527344 18.484375 43.953125 18.605469 44.34375 C 18.726562 44.730469 19.089844 45 19.5 45 L 40.320312 45 C 40.75 45 41.128906 44.707031 41.230469 44.289062 C 41.335938 43.871094 41.140625 43.4375 40.761719 43.234375 Z M 40.761719 43.234375 " fill-opacity="1" fill-rule="nonzero"/><path fill="#ffffff" d="M 44.710938 41.453125 L 41.9375 28.960938 C 41.867188 28.65625 41.652344 28.40625 41.363281 28.292969 C 41.070312 28.175781 40.742188 28.214844 40.484375 28.394531 L 31.460938 34.640625 C 31.191406 34.828125 31.039062 35.140625 31.0625 35.464844 C 31.078125 35.792969 31.269531 36.085938 31.558594 36.238281 L 43.355469 42.484375 C 43.492188 42.558594 43.644531 42.597656 43.792969 42.597656 C 43.996094 42.597656 44.195312 42.53125 44.363281 42.402344 C 44.652344 42.179688 44.789062 41.8125 44.710938 41.453125 Z M 44.710938 41.453125 " fill-opacity="1" fill-rule="nonzero"/><path fill="#ffffff" d="M 38.183594 26.90625 C 38.058594 26.515625 37.695312 26.25 37.285156 26.25 L 28.726562 26.25 C 27.171875 29.066406 24.871094 31.761719 23.921875 32.816406 C 23.390625 33.410156 22.625 33.75 21.828125 33.75 C 21.03125 33.75 20.269531 33.410156 19.738281 32.816406 C 19.371094 32.410156 18.804688 31.757812 18.15625 30.953125 L 15.886719 41.164062 C 15.804688 41.539062 15.960938 41.929688 16.28125 42.144531 C 16.4375 42.25 16.621094 42.304688 16.804688 42.304688 C 16.992188 42.304688 17.175781 42.25 17.335938 42.136719 L 37.816406 27.957031 C 38.15625 27.726562 38.300781 27.300781 38.183594 26.90625 Z M 38.183594 26.90625 " fill-opacity="1" fill-rule="nonzero"/><path fill="#ffffff" d="M 21.828125 15 C 18.210938 15 15.265625 17.945312 15.265625 21.5625 C 15.265625 24.929688 20.53125 30.894531 21.132812 31.5625 C 21.3125 31.761719 21.5625 31.875 21.828125 31.875 C 22.097656 31.875 22.347656 31.761719 22.527344 31.5625 C 23.128906 30.894531 28.390625 24.929688 28.390625 21.5625 C 28.390625 17.945312 25.449219 15 21.828125 15 Z M 21.828125 24.375 C 20.277344 24.375 19.015625 23.113281 19.015625 21.5625 C 19.015625 20.011719 20.277344 18.75 21.828125 18.75 C 23.382812 18.75 24.640625 20.011719 24.640625 21.5625 C 24.640625 23.113281 23.382812 24.375 21.828125 24.375 Z M 21.828125 24.375 " fill-opacity="1" fill-rule="nonzero"/></svg>