<svg xmlns="http://www.w3.org/2000/svg" xmlns:xlink="http://www.w3.org/1999/xlink" width="40" zoomAndPan="magnify" viewBox="0 0 30 30.000001" height="40" preserveAspectRatio="xMidYMid meet" version="1.0"><defs><clipPath id="3620b42344"><path d="M 0.484375 9 L 29.515625 9 L 29.515625 29.03125 L 0.484375 29.03125 Z M 0.484375 9 " clip-rule="nonzero"/></clipPath><clipPath id="aaa807935b"><path d="M 5.429688 6.179688 L 24.300781 6.179688 L 24.300781 20 L 5.429688 20 Z M 5.429688 6.179688 " clip-rule="nonzero"/></clipPath><clipPath id="fc8cf5071a"><path d="M 6 6.179688 L 24 6.179688 L 24 17 L 6 17 Z M 6 6.179688 " clip-rule="nonzero"/></clipPath><clipPath id="ecc79c2e46"><path d="M 7 21 L 23 21 L 23 22.875 L 7 22.875 Z M 7 21 " clip-rule="nonzero"/></clipPath></defs><path fill="#ffffff" d="M 20.445312 6.121094 L 20.445312 5.445312 C 20.441406 4.710938 20.292969 3.988281 20.007812 3.3125 C 19.71875 2.640625 19.300781 2.03125 18.773438 1.523438 C 18.246094 1.015625 17.621094 0.617188 16.9375 0.359375 C 16.253906 0.0976562 15.523438 -0.0234375 14.789062 0.00390625 C 11.90625 0.113281 9.554688 2.609375 9.554688 5.566406 L 9.554688 6.804688 C 9.554688 6.925781 9.605469 7.039062 9.6875 7.125 C 9.773438 7.210938 9.890625 7.257812 10.011719 7.257812 C 10.128906 7.257812 10.246094 7.210938 10.332031 7.125 C 10.414062 7.039062 10.464844 6.925781 10.464844 6.804688 L 10.464844 5.566406 C 10.464844 3.089844 12.421875 1 14.824219 0.910156 C 15.433594 0.886719 16.042969 0.988281 16.613281 1.207031 C 17.183594 1.421875 17.703125 1.753906 18.144531 2.175781 C 18.582031 2.597656 18.933594 3.105469 19.171875 3.667969 C 19.410156 4.230469 19.535156 4.832031 19.535156 5.445312 L 19.535156 6.121094 C 19.535156 6.21875 19.503906 6.316406 19.445312 6.394531 C 19.386719 6.472656 19.300781 6.527344 19.207031 6.554688 L 15.214844 7.699219 C 15.109375 7.730469 15.019531 7.796875 14.960938 7.890625 C 14.898438 7.980469 14.875 8.089844 14.890625 8.199219 C 14.90625 8.308594 14.960938 8.40625 15.042969 8.480469 C 15.125 8.550781 15.230469 8.589844 15.339844 8.589844 C 15.382812 8.589844 15.425781 8.585938 15.464844 8.574219 L 19.457031 7.429688 C 19.742188 7.347656 19.992188 7.175781 20.167969 6.9375 C 20.347656 6.703125 20.441406 6.414062 20.445312 6.121094 Z M 20.445312 6.121094 " fill-opacity="1" fill-rule="nonzero"/><g clip-path="url(#3620b42344)"><path fill="#ffffff" d="M 28.609375 16.332031 L 27.554688 16.332031 C 27.589844 16.25 27.609375 16.164062 27.625 16.078125 L 28.367188 11.542969 C 28.394531 11.359375 28.382812 11.171875 28.332031 10.992188 C 28.28125 10.8125 28.191406 10.644531 28.070312 10.507812 C 27.921875 10.339844 27.742188 10.203125 27.539062 10.113281 C 27.335938 10.023438 27.113281 9.976562 26.890625 9.980469 L 19.4375 9.980469 C 19.214844 9.976562 18.996094 10.023438 18.792969 10.113281 C 18.589844 10.203125 18.40625 10.339844 18.261719 10.507812 C 18.140625 10.644531 18.046875 10.8125 17.996094 10.992188 C 17.945312 11.171875 17.933594 11.359375 17.964844 11.542969 L 18.707031 16.078125 C 18.71875 16.164062 18.742188 16.25 18.773438 16.332031 L 1.390625 16.332031 C 1.152344 16.332031 0.917969 16.425781 0.75 16.597656 C 0.578125 16.765625 0.484375 16.996094 0.484375 17.238281 L 0.484375 18.597656 C 0.484375 18.621094 0.488281 18.640625 0.492188 18.664062 C 0.472656 18.882812 0.507812 19.105469 0.597656 19.308594 L 1.125 20.542969 C 1.234375 20.789062 1.410156 21 1.632812 21.144531 C 1.859375 21.292969 2.121094 21.371094 2.390625 21.367188 C 2.5625 21.367188 2.738281 21.335938 2.898438 21.269531 L 3.085938 21.195312 C 3.300781 21.542969 3.535156 21.882812 3.789062 22.214844 L 3.695312 22.300781 C 3.5625 22.425781 3.460938 22.578125 3.390625 22.746094 C 3.316406 22.910156 3.28125 23.089844 3.28125 23.273438 C 3.28125 23.453125 3.316406 23.632812 3.386719 23.800781 C 3.460938 23.964844 3.5625 24.117188 3.695312 24.242188 L 4.679688 25.191406 C 4.9375 25.4375 5.28125 25.574219 5.636719 25.574219 C 5.992188 25.574219 6.335938 25.4375 6.59375 25.191406 L 6.730469 25.0625 C 7.078125 25.308594 7.4375 25.539062 7.808594 25.757812 L 7.757812 25.871094 C 7.6875 26.039062 7.652344 26.214844 7.652344 26.394531 C 7.648438 26.574219 7.683594 26.75 7.753906 26.917969 C 7.824219 27.085938 7.929688 27.238281 8.058594 27.363281 C 8.191406 27.492188 8.34375 27.589844 8.515625 27.65625 L 9.796875 28.167969 C 9.960938 28.234375 10.132812 28.265625 10.308594 28.265625 C 10.578125 28.269531 10.84375 28.191406 11.066406 28.042969 C 11.292969 27.898438 11.46875 27.6875 11.574219 27.4375 L 11.636719 27.292969 C 12.054688 27.394531 12.488281 27.476562 12.929688 27.539062 L 12.929688 27.679688 C 12.933594 28.039062 13.082031 28.386719 13.335938 28.640625 C 13.59375 28.894531 13.941406 29.035156 14.304688 29.03125 L 15.695312 29.03125 C 16.058594 29.035156 16.40625 28.894531 16.664062 28.640625 C 16.917969 28.386719 17.066406 28.039062 17.070312 27.679688 L 17.070312 27.539062 C 17.507812 27.476562 17.941406 27.394531 18.363281 27.292969 L 18.425781 27.441406 C 18.53125 27.6875 18.707031 27.898438 18.933594 28.042969 C 19.15625 28.191406 19.421875 28.269531 19.691406 28.265625 C 19.863281 28.269531 20.035156 28.234375 20.199219 28.171875 L 21.492188 27.65625 C 21.660156 27.585938 21.8125 27.488281 21.945312 27.363281 C 22.074219 27.234375 22.175781 27.082031 22.246094 26.917969 C 22.316406 26.75 22.351562 26.574219 22.347656 26.394531 C 22.347656 26.214844 22.3125 26.035156 22.242188 25.871094 L 22.191406 25.757812 C 22.5625 25.542969 22.921875 25.308594 23.269531 25.0625 L 23.40625 25.191406 C 23.664062 25.4375 24.007812 25.574219 24.363281 25.574219 C 24.71875 25.574219 25.0625 25.4375 25.320312 25.191406 L 26.304688 24.242188 C 26.4375 24.117188 26.539062 23.964844 26.613281 23.800781 C 26.683594 23.632812 26.71875 23.453125 26.71875 23.273438 C 26.71875 23.089844 26.683594 22.910156 26.613281 22.746094 C 26.539062 22.578125 26.4375 22.425781 26.304688 22.300781 L 26.210938 22.214844 C 26.464844 21.882812 26.699219 21.542969 26.914062 21.195312 L 27.097656 21.269531 C 27.261719 21.335938 27.433594 21.367188 27.609375 21.367188 C 27.878906 21.371094 28.140625 21.292969 28.367188 21.144531 C 28.59375 20.996094 28.769531 20.785156 28.875 20.539062 L 29.40625 19.300781 C 29.492188 19.101562 29.527344 18.878906 29.511719 18.660156 C 29.511719 18.640625 29.515625 18.621094 29.515625 18.597656 L 29.515625 17.238281 C 29.515625 16.996094 29.421875 16.765625 29.25 16.597656 C 29.082031 16.425781 28.847656 16.332031 28.609375 16.332031 Z M 18.953125 11.09375 C 19.015625 11.027344 19.089844 10.972656 19.171875 10.9375 C 19.257812 10.902344 19.347656 10.886719 19.4375 10.886719 L 26.890625 10.886719 C 26.984375 10.886719 27.074219 10.902344 27.15625 10.9375 C 27.242188 10.972656 27.316406 11.027344 27.378906 11.09375 C 27.414062 11.132812 27.441406 11.183594 27.457031 11.234375 C 27.472656 11.285156 27.476562 11.34375 27.46875 11.394531 L 26.730469 15.933594 C 26.695312 16.054688 26.617188 16.164062 26.511719 16.234375 C 26.40625 16.308594 26.28125 16.339844 26.152344 16.332031 L 20.179688 16.332031 C 20.050781 16.339844 19.921875 16.308594 19.820312 16.234375 C 19.714844 16.164062 19.636719 16.054688 19.601562 15.933594 L 18.859375 11.394531 C 18.851562 11.34375 18.855469 11.285156 18.871094 11.234375 C 18.886719 11.183594 18.914062 11.132812 18.953125 11.09375 Z M 28.039062 20.183594 C 28.003906 20.265625 27.941406 20.335938 27.867188 20.386719 C 27.789062 20.4375 27.703125 20.460938 27.609375 20.460938 C 27.550781 20.460938 27.488281 20.449219 27.433594 20.425781 L 26.910156 20.21875 C 26.804688 20.175781 26.6875 20.175781 26.582031 20.210938 C 26.476562 20.246094 26.382812 20.320312 26.328125 20.417969 C 26.007812 20.964844 25.644531 21.484375 25.246094 21.972656 C 25.171875 22.058594 25.136719 22.167969 25.144531 22.28125 C 25.148438 22.390625 25.195312 22.496094 25.277344 22.574219 L 25.675781 22.957031 C 25.71875 22.996094 25.753906 23.046875 25.777344 23.101562 C 25.800781 23.15625 25.8125 23.214844 25.8125 23.273438 C 25.8125 23.332031 25.800781 23.390625 25.777344 23.445312 C 25.753906 23.5 25.71875 23.546875 25.675781 23.589844 L 24.691406 24.535156 C 24.601562 24.621094 24.484375 24.667969 24.363281 24.667969 C 24.242188 24.667969 24.121094 24.621094 24.035156 24.535156 L 23.636719 24.152344 C 23.546875 24.070312 23.429688 24.023438 23.308594 24.023438 C 23.203125 24.023438 23.101562 24.058594 23.015625 24.121094 C 22.503906 24.507812 21.960938 24.855469 21.398438 25.164062 C 21.300781 25.214844 21.222656 25.300781 21.183594 25.402344 C 21.148438 25.507812 21.148438 25.621094 21.191406 25.726562 L 21.40625 26.230469 C 21.429688 26.285156 21.441406 26.34375 21.441406 26.402344 C 21.441406 26.460938 21.429688 26.519531 21.40625 26.574219 C 21.382812 26.628906 21.347656 26.679688 21.304688 26.71875 C 21.261719 26.757812 21.210938 26.792969 21.15625 26.8125 L 19.867188 27.328125 C 19.8125 27.347656 19.75 27.359375 19.691406 27.359375 C 19.597656 27.363281 19.507812 27.335938 19.433594 27.285156 C 19.355469 27.238281 19.296875 27.167969 19.257812 27.085938 L 19.046875 26.585938 C 19.007812 26.503906 18.949219 26.429688 18.871094 26.382812 C 18.792969 26.332031 18.703125 26.308594 18.613281 26.308594 C 18.570312 26.308594 18.527344 26.316406 18.484375 26.328125 C 17.859375 26.492188 17.222656 26.613281 16.578125 26.6875 C 16.464844 26.699219 16.359375 26.75 16.285156 26.832031 C 16.207031 26.914062 16.164062 27.019531 16.160156 27.132812 L 16.160156 27.679688 C 16.160156 27.800781 16.109375 27.914062 16.019531 27.996094 C 15.933594 28.082031 15.816406 28.128906 15.695312 28.125 L 14.304688 28.125 C 14.183594 28.128906 14.066406 28.082031 13.980469 27.996094 C 13.890625 27.914062 13.839844 27.800781 13.839844 27.679688 L 13.839844 27.132812 C 13.835938 27.019531 13.792969 26.914062 13.714844 26.832031 C 13.640625 26.75 13.535156 26.699219 13.421875 26.6875 C 12.777344 26.613281 12.140625 26.492188 11.515625 26.328125 C 11.472656 26.316406 11.429688 26.308594 11.386719 26.308594 C 11.296875 26.308594 11.207031 26.332031 11.128906 26.382812 C 11.050781 26.429688 10.992188 26.5 10.953125 26.585938 L 10.742188 27.085938 C 10.703125 27.167969 10.644531 27.238281 10.566406 27.285156 C 10.492188 27.335938 10.402344 27.363281 10.308594 27.359375 C 10.25 27.359375 10.1875 27.347656 10.132812 27.328125 L 8.84375 26.8125 C 8.789062 26.792969 8.738281 26.757812 8.695312 26.71875 C 8.652344 26.679688 8.617188 26.628906 8.59375 26.574219 C 8.570312 26.519531 8.558594 26.460938 8.558594 26.402344 C 8.558594 26.34375 8.570312 26.285156 8.59375 26.230469 L 8.808594 25.726562 C 8.851562 25.621094 8.851562 25.507812 8.816406 25.402344 C 8.777344 25.300781 8.699219 25.214844 8.601562 25.164062 C 8.039062 24.855469 7.496094 24.507812 6.984375 24.121094 C 6.898438 24.058594 6.796875 24.023438 6.691406 24.023438 C 6.570312 24.023438 6.453125 24.070312 6.363281 24.152344 L 5.964844 24.535156 C 5.878906 24.621094 5.757812 24.667969 5.636719 24.667969 C 5.515625 24.667969 5.398438 24.621094 5.308594 24.535156 L 4.324219 23.589844 C 4.28125 23.546875 4.246094 23.5 4.222656 23.445312 C 4.199219 23.390625 4.1875 23.332031 4.1875 23.273438 C 4.1875 23.214844 4.199219 23.15625 4.222656 23.101562 C 4.246094 23.046875 4.28125 22.996094 4.324219 22.957031 L 4.722656 22.574219 C 4.804688 22.496094 4.851562 22.390625 4.855469 22.28125 C 4.863281 22.167969 4.828125 22.058594 4.753906 21.972656 C 4.355469 21.484375 3.992188 20.964844 3.671875 20.417969 C 3.617188 20.320312 3.523438 20.246094 3.417969 20.210938 C 3.3125 20.175781 3.195312 20.175781 3.089844 20.21875 L 2.566406 20.425781 C 2.511719 20.449219 2.449219 20.460938 2.390625 20.460938 C 2.300781 20.460938 2.210938 20.4375 2.132812 20.386719 C 2.058594 20.335938 1.996094 20.265625 1.960938 20.183594 L 1.667969 19.507812 L 5.140625 19.507812 C 6.210938 21.144531 7.675781 22.488281 9.394531 23.417969 C 11.117188 24.347656 13.042969 24.835938 15 24.835938 C 16.957031 24.835938 18.882812 24.347656 20.605469 23.417969 C 22.324219 22.488281 23.789062 21.144531 24.859375 19.507812 L 28.332031 19.507812 Z M 6.246094 19.507812 L 23.753906 19.507812 C 22.742188 20.878906 21.425781 21.992188 19.902344 22.761719 C 18.382812 23.527344 16.703125 23.929688 15 23.929688 C 13.296875 23.929688 11.617188 23.527344 10.097656 22.761719 C 8.574219 21.992188 7.257812 20.878906 6.246094 19.507812 Z M 28.609375 18.597656 L 1.390625 18.597656 L 1.390625 17.238281 L 28.609375 17.238281 Z M 28.609375 18.597656 " fill-opacity="1" fill-rule="nonzero"/></g><path fill="#ffffff" d="M 23.164062 14.96875 C 23.433594 14.96875 23.699219 14.890625 23.921875 14.742188 C 24.144531 14.589844 24.320312 14.378906 24.421875 14.128906 C 24.527344 13.882812 24.550781 13.605469 24.5 13.34375 C 24.449219 13.078125 24.316406 12.835938 24.128906 12.648438 C 23.9375 12.457031 23.695312 12.328125 23.429688 12.273438 C 23.167969 12.222656 22.894531 12.25 22.644531 12.351562 C 22.394531 12.453125 22.183594 12.628906 22.035156 12.851562 C 21.882812 13.078125 21.804688 13.339844 21.804688 13.609375 C 21.804688 13.96875 21.949219 14.316406 22.203125 14.570312 C 22.457031 14.824219 22.804688 14.96875 23.164062 14.96875 Z M 23.164062 13.15625 C 23.253906 13.15625 23.34375 13.183594 23.417969 13.230469 C 23.492188 13.28125 23.550781 13.351562 23.585938 13.433594 C 23.617188 13.519531 23.628906 13.609375 23.609375 13.699219 C 23.59375 13.785156 23.550781 13.867188 23.484375 13.929688 C 23.421875 13.992188 23.34375 14.035156 23.253906 14.054688 C 23.164062 14.070312 23.074219 14.0625 22.992188 14.027344 C 22.910156 13.992188 22.839844 13.933594 22.789062 13.859375 C 22.738281 13.785156 22.710938 13.699219 22.710938 13.609375 C 22.710938 13.488281 22.757812 13.375 22.84375 13.289062 C 22.929688 13.203125 23.046875 13.15625 23.164062 13.15625 Z M 23.164062 13.15625 " fill-opacity="1" fill-rule="nonzero"/><path fill="#ffffff" d="M 4.132812 10.886719 C 4.253906 10.886719 4.371094 10.839844 4.457031 10.753906 C 4.539062 10.667969 4.589844 10.554688 4.589844 10.433594 L 4.589844 9.976562 C 4.804688 9.945312 5.015625 9.871094 5.203125 9.757812 C 5.394531 9.644531 5.558594 9.496094 5.6875 9.320312 C 5.84375 9.089844 5.925781 8.820312 5.929688 8.542969 C 5.929688 8.265625 5.847656 7.996094 5.695312 7.761719 C 5.34375 7.21875 4.734375 7.054688 4.195312 6.910156 C 3.660156 6.765625 3.324219 6.660156 3.222656 6.367188 C 3.132812 6.09375 3.425781 5.894531 3.59375 5.828125 C 3.789062 5.753906 3.996094 5.730469 4.203125 5.75 C 4.410156 5.773438 4.609375 5.839844 4.785156 5.949219 C 4.835938 5.980469 4.890625 6 4.949219 6.011719 C 5.011719 6.019531 5.070312 6.019531 5.128906 6.003906 C 5.1875 5.988281 5.242188 5.964844 5.289062 5.929688 C 5.339844 5.894531 5.378906 5.851562 5.410156 5.796875 C 5.441406 5.746094 5.460938 5.691406 5.472656 5.632812 C 5.480469 5.574219 5.476562 5.511719 5.464844 5.453125 C 5.449219 5.398438 5.421875 5.34375 5.386719 5.292969 C 5.351562 5.246094 5.308594 5.207031 5.257812 5.175781 C 5.105469 5.082031 4.941406 5.007812 4.769531 4.953125 L 4.769531 4.535156 C 4.769531 4.414062 4.722656 4.300781 4.636719 4.214844 C 4.554688 4.128906 4.4375 4.082031 4.316406 4.082031 C 4.195312 4.082031 4.082031 4.128906 3.996094 4.214844 C 3.910156 4.300781 3.863281 4.414062 3.863281 4.535156 L 3.863281 4.847656 C 3.65625 4.863281 3.449219 4.910156 3.253906 4.984375 C 2.511719 5.28125 2.136719 5.988281 2.363281 6.660156 C 2.625 7.425781 3.367188 7.625 3.960938 7.785156 C 4.375 7.898438 4.769531 8.003906 4.929688 8.253906 C 4.988281 8.335938 5.019531 8.429688 5.019531 8.527344 C 5.023438 8.625 4.996094 8.71875 4.941406 8.804688 C 4.738281 9.097656 4.21875 9.15625 3.824219 9.089844 C 3.664062 9.054688 3.511719 8.988281 3.382812 8.886719 C 3.332031 8.851562 3.28125 8.824219 3.222656 8.8125 C 3.164062 8.796875 3.105469 8.792969 3.046875 8.800781 C 2.984375 8.808594 2.929688 8.828125 2.878906 8.859375 C 2.828125 8.890625 2.78125 8.929688 2.746094 8.976562 C 2.710938 9.023438 2.683594 9.078125 2.667969 9.136719 C 2.652344 9.195312 2.652344 9.253906 2.660156 9.3125 C 2.667969 9.371094 2.6875 9.429688 2.71875 9.480469 C 2.75 9.53125 2.789062 9.578125 2.835938 9.613281 C 3.082031 9.796875 3.367188 9.925781 3.667969 9.980469 C 3.671875 9.980469 3.675781 9.980469 3.679688 9.984375 L 3.679688 10.433594 C 3.679688 10.554688 3.730469 10.667969 3.8125 10.753906 C 3.898438 10.839844 4.015625 10.886719 4.132812 10.886719 Z M 4.132812 10.886719 " fill-opacity="1" fill-rule="nonzero"/><path fill="#ffffff" d="M 17.609375 9.878906 L 17.609375 9.320312 C 17.769531 9.152344 17.914062 8.972656 18.039062 8.777344 L 15.714844 9.445312 C 15.609375 9.472656 15.503906 9.492188 15.394531 9.492188 C 15.007812 9.554688 14.613281 9.53125 14.234375 9.421875 C 13.859375 9.3125 13.511719 9.125 13.214844 8.871094 C 12.917969 8.613281 12.679688 8.296875 12.519531 7.941406 C 12.359375 7.582031 12.273438 7.195312 12.277344 6.804688 L 12.277344 5.445312 C 12.277344 4.722656 12.566406 4.03125 13.074219 3.519531 C 13.585938 3.007812 14.277344 2.722656 15 2.722656 C 15.722656 2.722656 16.414062 3.007812 16.925781 3.519531 C 17.433594 4.03125 17.722656 4.722656 17.722656 5.445312 L 17.722656 6.039062 L 18.628906 5.777344 L 18.628906 5.445312 C 18.628906 4.75 18.429688 4.066406 18.050781 3.484375 C 17.636719 2.859375 17.042969 2.371094 16.347656 2.09375 C 15.652344 1.8125 14.886719 1.75 14.152344 1.917969 C 13.351562 2.132812 12.644531 2.609375 12.144531 3.269531 C 11.640625 3.929688 11.367188 4.734375 11.371094 5.566406 L 11.371094 6.804688 C 11.371094 7.746094 11.738281 8.648438 12.390625 9.320312 L 12.390625 10.445312 C 12.351562 10.441406 12.316406 10.433594 12.277344 10.433594 L 11.753906 10.433594 C 9.257812 10.433594 7.515625 11.863281 7.515625 13.914062 L 7.515625 15.421875 L 8.421875 15.421875 L 8.421875 13.914062 C 8.421875 12.144531 10.148438 11.339844 11.753906 11.339844 L 12.277344 11.339844 C 12.335938 11.339844 12.390625 11.359375 12.4375 11.394531 L 14.300781 13.046875 L 13.570312 15.421875 L 14.519531 15.421875 L 15 13.859375 L 15.480469 15.421875 L 16.429688 15.421875 L 15.699219 13.046875 L 17.089844 11.816406 L 17.070312 11.6875 C 17.019531 11.375 17.039062 11.054688 17.125 10.746094 C 17.210938 10.441406 17.363281 10.160156 17.570312 9.917969 C 17.582031 9.902344 17.597656 9.890625 17.609375 9.878906 Z M 16.699219 10.945312 L 15 12.453125 L 13.300781 10.945312 L 13.300781 10.007812 C 13.824219 10.289062 14.40625 10.433594 15 10.433594 C 15.59375 10.433594 16.179688 10.285156 16.699219 10.007812 Z M 16.699219 10.945312 " fill-opacity="1" fill-rule="nonzero"/><path fill="#ffffff" d="M 10.039062 14.609375 L 10.039062 15.421875 L 10.945312 15.421875 L 10.945312 14.609375 C 10.945312 14.488281 10.898438 14.375 10.8125 14.289062 C 10.726562 14.203125 10.613281 14.15625 10.492188 14.15625 C 10.371094 14.15625 10.257812 14.203125 10.171875 14.289062 C 10.085938 14.375 10.039062 14.488281 10.039062 14.609375 Z M 10.039062 14.609375 " fill-opacity="1" fill-rule="nonzero"/><path fill="#24b6e9" d="M 12.503906 19.921875 L 17.480469 19.921875 L 17.480469 21.113281 L 12.503906 21.113281 Z M 12.503906 19.921875 " fill-opacity="1" fill-rule="nonzero"/><g clip-path="url(#aaa807935b)"><path fill="#084c7f" d="M 24.554688 18.285156 C 24.554688 19.070312 24.019531 19.707031 23.355469 19.707031 L 6.628906 19.707031 C 5.964844 19.707031 5.425781 19.070312 5.425781 18.285156 L 5.425781 7.609375 C 5.425781 6.824219 5.964844 6.1875 6.628906 6.1875 L 23.355469 6.1875 C 24.019531 6.1875 24.554688 6.824219 24.554688 7.609375 Z M 24.554688 18.285156 " fill-opacity="1" fill-rule="nonzero"/></g><g clip-path="url(#fc8cf5071a)"><path fill="#f3f3e0" d="M 23.683594 15.871094 C 23.683594 16.460938 23.195312 16.933594 22.59375 16.933594 L 7.390625 16.933594 C 6.785156 16.933594 6.296875 16.460938 6.296875 15.871094 L 6.296875 7.917969 C 6.296875 7.332031 6.789062 6.855469 7.390625 6.855469 L 22.59375 6.855469 C 23.195312 6.855469 23.683594 7.332031 23.683594 7.917969 Z M 23.683594 15.871094 " fill-opacity="1" fill-rule="nonzero"/></g><path fill="#f3f3e0" d="M 7.210938 18.339844 C 7.210938 18.464844 7.164062 18.574219 7.078125 18.664062 C 6.988281 18.753906 6.878906 18.796875 6.753906 18.796875 C 6.628906 18.796875 6.519531 18.753906 6.429688 18.664062 C 6.34375 18.574219 6.296875 18.464844 6.296875 18.339844 C 6.296875 18.214844 6.34375 18.105469 6.429688 18.019531 C 6.519531 17.929688 6.628906 17.882812 6.753906 17.882812 C 6.878906 17.882812 6.988281 17.929688 7.078125 18.019531 C 7.164062 18.105469 7.210938 18.214844 7.210938 18.339844 Z M 7.210938 18.339844 " fill-opacity="1" fill-rule="nonzero"/><g clip-path="url(#ecc79c2e46)"><path fill="#084c7f" d="M 22.398438 22.152344 C 22.398438 22.535156 22.171875 22.84375 21.894531 22.84375 L 8.085938 22.84375 C 7.808594 22.84375 7.585938 22.535156 7.585938 22.152344 C 7.585938 21.773438 7.808594 21.460938 8.085938 21.460938 L 21.894531 21.460938 C 22.171875 21.460938 22.398438 21.773438 22.398438 22.152344 Z M 22.398438 22.152344 " fill-opacity="1" fill-rule="nonzero"/></g><path fill="#f3f3e0" d="M 7.894531 18.011719 L 12.378906 18.011719 L 12.378906 18.671875 L 7.894531 18.671875 Z M 7.894531 18.011719 " fill-opacity="1" fill-rule="nonzero"/><path fill="#24b6e9" d="M 8.234375 7.726562 L 21.746094 7.726562 L 21.746094 10.015625 L 8.234375 10.015625 Z M 8.234375 7.726562 " fill-opacity="1" fill-rule="nonzero"/><path fill="#cbdceb" d="M 8.234375 10.53125 L 13.140625 10.53125 L 13.140625 15.660156 L 8.234375 15.660156 Z M 8.234375 10.53125 " fill-opacity="1" fill-rule="nonzero"/><path fill="#24b6e9" d="M 14.011719 10.53125 L 21.746094 10.53125 L 21.746094 10.894531 L 14.011719 10.894531 Z M 14.011719 10.53125 " fill-opacity="1" fill-rule="nonzero"/><path fill="#cbdceb" d="M 14.011719 11.210938 L 21.746094 11.210938 L 21.746094 11.574219 L 14.011719 11.574219 Z M 14.011719 11.210938 " fill-opacity="1" fill-rule="nonzero"/><path fill="#24b6e9" d="M 14.011719 11.890625 L 21.746094 11.890625 L 21.746094 12.253906 L 14.011719 12.253906 Z M 14.011719 11.890625 " fill-opacity="1" fill-rule="nonzero"/><path fill="#cbdceb" d="M 14.011719 12.570312 L 21.746094 12.570312 L 21.746094 12.9375 L 14.011719 12.9375 Z M 14.011719 12.570312 " fill-opacity="1" fill-rule="nonzero"/><path fill="#24b6e9" d="M 14.011719 13.253906 L 21.746094 13.253906 L 21.746094 13.617188 L 14.011719 13.617188 Z M 14.011719 13.253906 " fill-opacity="1" fill-rule="nonzero"/><path fill="#cbdceb" d="M 14.011719 13.933594 L 21.746094 13.933594 L 21.746094 14.296875 L 14.011719 14.296875 Z M 14.011719 13.933594 " fill-opacity="1" fill-rule="nonzero"/><path fill="#24b6e9" d="M 14.011719 14.613281 L 21.746094 14.613281 L 21.746094 14.976562 L 14.011719 14.976562 Z M 14.011719 14.613281 " fill-opacity="1" fill-rule="nonzero"/><path fill="#cbdceb" d="M 14.011719 15.292969 L 21.746094 15.292969 L 21.746094 15.660156 L 14.011719 15.660156 Z M 14.011719 15.292969 " fill-opacity="1" fill-rule="nonzero"/></svg>