<svg xmlns="http://www.w3.org/2000/svg" xmlns:xlink="http://www.w3.org/1999/xlink" width="60" zoomAndPan="magnify" viewBox="0 0 45 44.999999" height="60" preserveAspectRatio="xMidYMid meet" version="1.0"><rect x="-4.5" width="54" fill="#ffffff" y="-4.5" height="53.999999" fill-opacity="1"/><rect x="-4.5" width="54" fill="#ffffff" y="-4.5" height="53.999999" fill-opacity="1"/><path fill="#24b6e9" d="M 4.5 0 L 40.5 0 C 40.796875 0 41.089844 0.0273438 41.378906 0.0859375 C 41.667969 0.144531 41.949219 0.230469 42.222656 0.34375 C 42.496094 0.457031 42.753906 0.59375 43 0.757812 C 43.246094 0.921875 43.472656 1.109375 43.683594 1.316406 C 43.890625 1.527344 44.078125 1.753906 44.242188 2 C 44.40625 2.246094 44.542969 2.503906 44.65625 2.777344 C 44.769531 3.050781 44.855469 3.332031 44.914062 3.621094 C 44.972656 3.910156 45 4.203125 45 4.5 L 45 40.5 C 45 40.796875 44.972656 41.089844 44.914062 41.378906 C 44.855469 41.667969 44.769531 41.949219 44.65625 42.222656 C 44.542969 42.496094 44.40625 42.753906 44.242188 43 C 44.078125 43.246094 43.890625 43.472656 43.683594 43.683594 C 43.472656 43.890625 43.246094 44.078125 43 44.242188 C 42.753906 44.40625 42.496094 44.542969 42.222656 44.65625 C 41.949219 44.769531 41.667969 44.855469 41.378906 44.914062 C 41.089844 44.972656 40.796875 45 40.5 45 L 4.5 45 C 4.203125 45 3.910156 44.972656 3.621094 44.914062 C 3.332031 44.855469 3.050781 44.769531 2.777344 44.65625 C 2.503906 44.542969 2.246094 44.40625 2 44.242188 C 1.753906 44.078125 1.527344 43.890625 1.316406 43.683594 C 1.109375 43.472656 0.921875 43.246094 0.757812 43 C 0.59375 42.753906 0.457031 42.496094 0.34375 42.222656 C 0.230469 41.949219 0.144531 41.667969 0.0859375 41.378906 C 0.0273438 41.089844 0 40.796875 0 40.5 L 0 4.5 C 0 4.203125 0.0273438 3.910156 0.0859375 3.621094 C 0.144531 3.332031 0.230469 3.050781 0.34375 2.777344 C 0.457031 2.503906 0.59375 2.246094 0.757812 2 C 0.921875 1.753906 1.109375 1.527344 1.316406 1.316406 C 1.527344 1.109375 1.753906 0.921875 2 0.757812 C 2.246094 0.59375 2.503906 0.457031 2.777344 0.34375 C 3.050781 0.230469 3.332031 0.144531 3.621094 0.0859375 C 3.910156 0.0273438 4.203125 0 4.5 0 Z M 4.5 0 " fill-opacity="1" fill-rule="nonzero"/><path fill="#ffffff" d="M 20.214844 21.375 L 20.25 25.3125 C 20.25 25.945312 19.722656 26.4375 19.125 26.4375 L 18.5625 26.4375 C 17.296875 26.4375 16.3125 25.453125 16.3125 24.1875 L 16.3125 22.535156 C 16.3125 21.269531 17.296875 20.25 18.5625 20.25 L 19.089844 20.25 C 19.6875 20.25 20.214844 20.777344 20.214844 21.375 Z M 22.5 13.5 C 27.527344 13.5 31.324219 17.71875 31.5 22.5 L 31.5 27.5625 C 31.5 29.285156 30.09375 30.65625 28.40625 30.65625 L 24.503906 30.65625 C 24.222656 31.183594 23.660156 31.5 23.0625 31.5 L 21.902344 31.5 C 20.882812 31.5 20.074219 30.585938 20.25 29.496094 C 20.425781 28.6875 21.164062 28.125 21.972656 28.125 L 23.0625 28.125 C 23.660156 28.125 24.222656 28.476562 24.503906 28.96875 L 28.40625 28.96875 C 29.179688 28.96875 29.8125 28.371094 29.8125 27.5625 L 29.8125 22.5 C 29.8125 18.492188 26.507812 15.222656 22.5 15.222656 C 18.457031 15.222656 15.1875 18.492188 15.1875 22.5 L 15.1875 23.90625 C 15.1875 24.398438 14.730469 24.75 14.308594 24.75 C 13.851562 24.75 13.5 24.398438 13.5 23.90625 L 13.5 22.5 C 13.640625 17.71875 17.4375 13.5 22.5 13.5 Z M 26.4375 26.4375 L 25.875 26.4375 C 25.242188 26.4375 24.75 25.945312 24.75 25.3125 L 24.75 21.410156 C 24.75 20.777344 25.242188 20.25 25.875 20.25 L 26.4375 20.25 C 27.667969 20.25 28.6875 21.269531 28.6875 22.535156 L 28.6875 24.1875 C 28.6875 25.453125 27.667969 26.4375 26.4375 26.4375 Z M 26.4375 26.4375 " fill-opacity="1" fill-rule="nonzero"/></svg>