<svg xmlns="http://www.w3.org/2000/svg" xmlns:xlink="http://www.w3.org/1999/xlink" width="40" zoomAndPan="magnify" viewBox="0 0 30 30.000001" height="40" preserveAspectRatio="xMidYMid meet" version="1.0"><defs><clipPath id="3d814ad1ed"><path d="M 0.484375 0 L 29.515625 0 L 29.515625 29.03125 L 0.484375 29.03125 Z M 0.484375 0 " clip-rule="nonzero"/></clipPath></defs><g clip-path="url(#3d814ad1ed)"><path fill="#24b6e9" d="M 29.515625 14.515625 C 29.515625 15.46875 29.421875 16.414062 29.238281 17.347656 C 29.050781 18.28125 28.777344 19.191406 28.410156 20.070312 C 28.046875 20.953125 27.597656 21.789062 27.070312 22.582031 C 26.539062 23.375 25.9375 24.105469 25.265625 24.78125 C 24.589844 25.453125 23.855469 26.054688 23.066406 26.585938 C 22.273438 27.117188 21.4375 27.5625 20.554688 27.925781 C 19.675781 28.292969 18.765625 28.566406 17.832031 28.753906 C 16.898438 28.9375 15.953125 29.03125 15 29.03125 C 14.046875 29.03125 13.101562 28.9375 12.167969 28.753906 C 11.234375 28.566406 10.324219 28.292969 9.445312 27.925781 C 8.5625 27.5625 7.726562 27.117188 6.933594 26.585938 C 6.144531 26.054688 5.410156 25.453125 4.734375 24.78125 C 4.0625 24.105469 3.460938 23.375 2.929688 22.582031 C 2.402344 21.789062 1.953125 20.953125 1.589844 20.070312 C 1.222656 19.191406 0.949219 18.28125 0.761719 17.347656 C 0.578125 16.414062 0.484375 15.46875 0.484375 14.515625 C 0.484375 13.5625 0.578125 12.617188 0.761719 11.683594 C 0.949219 10.75 1.222656 9.839844 1.589844 8.960938 C 1.953125 8.082031 2.402344 7.242188 2.929688 6.453125 C 3.460938 5.660156 4.0625 4.925781 4.734375 4.25 C 5.410156 3.578125 6.144531 2.976562 6.933594 2.445312 C 7.726562 1.917969 8.5625 1.46875 9.445312 1.105469 C 10.324219 0.738281 11.234375 0.464844 12.167969 0.277344 C 13.101562 0.09375 14.046875 0 15 0 C 15.953125 0 16.898438 0.09375 17.832031 0.277344 C 18.765625 0.464844 19.675781 0.738281 20.554688 1.105469 C 21.4375 1.46875 22.273438 1.917969 23.066406 2.445312 C 23.855469 2.976562 24.589844 3.578125 25.265625 4.25 C 25.9375 4.925781 26.539062 5.660156 27.070312 6.453125 C 27.597656 7.242188 28.046875 8.082031 28.410156 8.960938 C 28.777344 9.839844 29.050781 10.75 29.238281 11.683594 C 29.421875 12.617188 29.515625 13.5625 29.515625 14.515625 Z M 29.515625 14.515625 " fill-opacity="1" fill-rule="nonzero"/></g><path fill="#ffffff" d="M 14.964844 14.828125 C 14.964844 16.183594 14.703125 17.226562 14.1875 17.953125 C 13.675781 18.671875 12.964844 19.035156 12.0625 19.035156 C 11.15625 19.035156 10.441406 18.671875 9.925781 17.953125 C 9.414062 17.226562 9.15625 16.183594 9.15625 14.828125 C 9.15625 14.15625 9.222656 13.558594 9.355469 13.042969 C 9.496094 12.523438 9.691406 12.085938 9.945312 11.730469 C 10.203125 11.371094 10.507812 11.101562 10.863281 10.917969 C 11.21875 10.730469 11.621094 10.636719 12.0625 10.636719 C 12.964844 10.636719 13.675781 11 14.1875 11.730469 C 14.703125 12.449219 14.964844 13.484375 14.964844 14.828125 Z M 13.199219 14.828125 C 13.199219 14.425781 13.179688 14.0625 13.140625 13.738281 C 13.101562 13.40625 13.039062 13.117188 12.953125 12.878906 C 12.871094 12.640625 12.753906 12.453125 12.605469 12.320312 C 12.460938 12.191406 12.277344 12.125 12.0625 12.125 C 11.84375 12.125 11.660156 12.191406 11.515625 12.320312 C 11.375 12.453125 11.257812 12.640625 11.167969 12.878906 C 11.082031 13.117188 11.019531 13.40625 10.980469 13.738281 C 10.941406 14.0625 10.921875 14.425781 10.921875 14.828125 C 10.921875 15.230469 10.941406 15.601562 10.980469 15.933594 C 11.019531 16.265625 11.082031 16.550781 11.167969 16.792969 C 11.257812 17.03125 11.375 17.21875 11.515625 17.351562 C 11.660156 17.480469 11.84375 17.546875 12.0625 17.546875 C 12.277344 17.546875 12.460938 17.480469 12.605469 17.351562 C 12.753906 17.21875 12.871094 17.03125 12.953125 16.792969 C 13.039062 16.550781 13.101562 16.265625 13.140625 15.933594 C 13.179688 15.601562 13.199219 15.230469 13.199219 14.828125 Z M 16.175781 12.496094 C 16.398438 12.402344 16.632812 12.296875 16.871094 12.183594 C 17.121094 12.058594 17.359375 11.925781 17.59375 11.785156 C 17.824219 11.640625 18.046875 11.488281 18.253906 11.335938 C 18.472656 11.171875 18.664062 11 18.835938 10.824219 L 20.042969 10.824219 L 20.042969 18.871094 L 18.3125 18.871094 L 18.3125 13.074219 C 18.082031 13.230469 17.820312 13.375 17.535156 13.503906 C 17.246094 13.628906 16.96875 13.738281 16.699219 13.832031 Z M 16.175781 12.496094 " fill-opacity="1" fill-rule="nonzero"/></svg>