<svg xmlns="http://www.w3.org/2000/svg" xmlns:xlink="http://www.w3.org/1999/xlink" width="40" zoomAndPan="magnify" viewBox="0 0 30 30.000001" height="40" preserveAspectRatio="xMidYMid meet" version="1.0"><defs><clipPath id="6491a7f8f3"><path d="M 0.484375 0 L 29.515625 0 L 29.515625 29.03125 L 0.484375 29.03125 Z M 0.484375 0 " clip-rule="nonzero"/></clipPath></defs><g clip-path="url(#6491a7f8f3)"><path fill="#24b6e9" d="M 29.515625 14.515625 C 29.515625 15.46875 29.421875 16.414062 29.238281 17.347656 C 29.050781 18.28125 28.777344 19.191406 28.410156 20.070312 C 28.046875 20.953125 27.597656 21.789062 27.070312 22.582031 C 26.539062 23.375 25.9375 24.105469 25.265625 24.78125 C 24.589844 25.453125 23.855469 26.054688 23.066406 26.585938 C 22.273438 27.117188 21.4375 27.5625 20.554688 27.925781 C 19.675781 28.292969 18.765625 28.566406 17.832031 28.753906 C 16.898438 28.9375 15.953125 29.03125 15 29.03125 C 14.046875 29.03125 13.101562 28.9375 12.167969 28.753906 C 11.234375 28.566406 10.324219 28.292969 9.445312 27.925781 C 8.5625 27.5625 7.726562 27.117188 6.933594 26.585938 C 6.144531 26.054688 5.410156 25.453125 4.734375 24.78125 C 4.0625 24.105469 3.460938 23.375 2.929688 22.582031 C 2.402344 21.789062 1.953125 20.953125 1.589844 20.070312 C 1.222656 19.191406 0.949219 18.28125 0.761719 17.347656 C 0.578125 16.414062 0.484375 15.46875 0.484375 14.515625 C 0.484375 13.5625 0.578125 12.617188 0.761719 11.683594 C 0.949219 10.75 1.222656 9.839844 1.589844 8.960938 C 1.953125 8.082031 2.402344 7.242188 2.929688 6.453125 C 3.460938 5.660156 4.0625 4.925781 4.734375 4.25 C 5.410156 3.578125 6.144531 2.976562 6.933594 2.445312 C 7.726562 1.917969 8.5625 1.46875 9.445312 1.105469 C 10.324219 0.738281 11.234375 0.464844 12.167969 0.277344 C 13.101562 0.09375 14.046875 0 15 0 C 15.953125 0 16.898438 0.09375 17.832031 0.277344 C 18.765625 0.464844 19.675781 0.738281 20.554688 1.105469 C 21.4375 1.46875 22.273438 1.917969 23.066406 2.445312 C 23.855469 2.976562 24.589844 3.578125 25.265625 4.25 C 25.9375 4.925781 26.539062 5.660156 27.070312 6.453125 C 27.597656 7.242188 28.046875 8.082031 28.410156 8.960938 C 28.777344 9.839844 29.050781 10.75 29.238281 11.683594 C 29.421875 12.617188 29.515625 13.5625 29.515625 14.515625 Z M 29.515625 14.515625 " fill-opacity="1" fill-rule="nonzero"/></g><path fill="#ffffff" d="M 14.964844 14.828125 C 14.964844 16.183594 14.703125 17.226562 14.1875 17.953125 C 13.675781 18.671875 12.964844 19.035156 12.0625 19.035156 C 11.15625 19.035156 10.441406 18.671875 9.925781 17.953125 C 9.414062 17.226562 9.15625 16.183594 9.15625 14.828125 C 9.15625 14.15625 9.222656 13.558594 9.355469 13.042969 C 9.496094 12.523438 9.691406 12.085938 9.945312 11.730469 C 10.203125 11.371094 10.507812 11.101562 10.863281 10.917969 C 11.21875 10.730469 11.621094 10.636719 12.0625 10.636719 C 12.964844 10.636719 13.675781 11 14.1875 11.730469 C 14.703125 12.449219 14.964844 13.484375 14.964844 14.828125 Z M 13.199219 14.828125 C 13.199219 14.425781 13.179688 14.0625 13.140625 13.738281 C 13.101562 13.40625 13.039062 13.117188 12.953125 12.878906 C 12.871094 12.640625 12.753906 12.453125 12.605469 12.320312 C 12.460938 12.191406 12.277344 12.125 12.0625 12.125 C 11.84375 12.125 11.660156 12.191406 11.515625 12.320312 C 11.375 12.453125 11.257812 12.640625 11.167969 12.878906 C 11.082031 13.117188 11.019531 13.40625 10.980469 13.738281 C 10.941406 14.0625 10.921875 14.425781 10.921875 14.828125 C 10.921875 15.230469 10.941406 15.601562 10.980469 15.933594 C 11.019531 16.265625 11.082031 16.550781 11.167969 16.792969 C 11.257812 17.03125 11.375 17.21875 11.515625 17.351562 C 11.660156 17.480469 11.84375 17.546875 12.0625 17.546875 C 12.277344 17.546875 12.460938 17.480469 12.605469 17.351562 C 12.753906 17.21875 12.871094 17.03125 12.953125 16.792969 C 13.039062 16.550781 13.101562 16.265625 13.140625 15.933594 C 13.179688 15.601562 13.199219 15.230469 13.199219 14.828125 Z M 18.011719 19.046875 C 17.800781 19.046875 17.582031 19.03125 17.347656 19 C 17.117188 18.976562 16.890625 18.941406 16.675781 18.894531 C 16.457031 18.847656 16.261719 18.796875 16.082031 18.742188 C 15.90625 18.6875 15.765625 18.640625 15.664062 18.59375 L 16 17.152344 C 16.203125 17.238281 16.457031 17.332031 16.769531 17.429688 C 17.085938 17.523438 17.476562 17.570312 17.941406 17.570312 C 18.476562 17.570312 18.867188 17.46875 19.113281 17.269531 C 19.363281 17.066406 19.484375 16.796875 19.484375 16.457031 C 19.484375 16.246094 19.4375 16.070312 19.347656 15.933594 C 19.261719 15.785156 19.140625 15.667969 18.984375 15.585938 C 18.832031 15.492188 18.644531 15.429688 18.429688 15.398438 C 18.21875 15.359375 17.996094 15.339844 17.753906 15.339844 L 17.082031 15.339844 L 17.082031 13.945312 L 17.847656 13.945312 C 18.019531 13.945312 18.179688 13.929688 18.335938 13.902344 C 18.5 13.871094 18.640625 13.820312 18.765625 13.75 C 18.890625 13.671875 18.984375 13.570312 19.054688 13.449219 C 19.132812 13.316406 19.171875 13.152344 19.171875 12.960938 C 19.171875 12.8125 19.140625 12.683594 19.078125 12.578125 C 19.015625 12.46875 18.9375 12.378906 18.835938 12.308594 C 18.742188 12.238281 18.628906 12.191406 18.5 12.160156 C 18.375 12.121094 18.246094 12.101562 18.113281 12.101562 C 17.78125 12.101562 17.472656 12.152344 17.1875 12.25 C 16.90625 12.351562 16.652344 12.476562 16.417969 12.625 L 15.804688 11.355469 C 15.929688 11.28125 16.070312 11.199219 16.234375 11.113281 C 16.402344 11.027344 16.589844 10.949219 16.792969 10.882812 C 16.992188 10.8125 17.207031 10.753906 17.429688 10.707031 C 17.664062 10.660156 17.90625 10.636719 18.160156 10.636719 C 18.632812 10.636719 19.039062 10.695312 19.382812 10.8125 C 19.730469 10.921875 20.015625 11.078125 20.242188 11.289062 C 20.464844 11.488281 20.632812 11.730469 20.738281 12.007812 C 20.847656 12.277344 20.902344 12.578125 20.902344 12.902344 C 20.902344 13.21875 20.8125 13.527344 20.636719 13.832031 C 20.457031 14.125 20.21875 14.351562 19.914062 14.503906 C 20.332031 14.675781 20.65625 14.929688 20.878906 15.269531 C 21.109375 15.605469 21.226562 16.007812 21.226562 16.480469 C 21.226562 16.851562 21.164062 17.195312 21.042969 17.511719 C 20.917969 17.820312 20.722656 18.09375 20.460938 18.324219 C 20.199219 18.550781 19.859375 18.726562 19.449219 18.859375 C 19.046875 18.984375 18.566406 19.046875 18.011719 19.046875 Z M 18.011719 19.046875 " fill-opacity="1" fill-rule="nonzero"/></svg>