<svg xmlns="http://www.w3.org/2000/svg" xmlns:xlink="http://www.w3.org/1999/xlink" width="40" zoomAndPan="magnify" viewBox="0 0 30 30.000001" height="40" preserveAspectRatio="xMidYMid meet" version="1.0"><defs><clipPath id="fa99749057"><path d="M 1.246094 0 L 14 0 L 14 13.789062 L 1.246094 13.789062 Z M 1.246094 0 " clip-rule="nonzero"/></clipPath></defs><g clip-path="url(#fa99749057)"><path fill="#084c7f" d="M 8.285156 12.777344 C 7.953125 13.140625 7.367188 13.140625 7.03125 12.777344 L 1.675781 7.421875 C 1.316406 7.089844 1.316406 6.503906 1.675781 6.167969 C 2.011719 5.804688 2.597656 5.804688 2.933594 6.167969 L 7.671875 10.878906 L 12.386719 6.167969 C 12.71875 5.804688 13.304688 5.804688 13.640625 6.167969 C 14.003906 6.503906 14.003906 7.089844 13.640625 7.421875 Z M 13.640625 2.070312 L 8.285156 7.421875 C 7.953125 7.785156 7.367188 7.785156 7.03125 7.421875 L 1.675781 2.070312 C 1.316406 1.734375 1.316406 1.148438 1.675781 0.816406 C 2.011719 0.453125 2.597656 0.453125 2.933594 0.816406 L 7.671875 5.527344 L 12.386719 0.816406 C 12.71875 0.453125 13.304688 0.453125 13.640625 0.816406 C 14.003906 1.148438 14.003906 1.734375 13.640625 2.070312 Z M 13.640625 2.070312 " fill-opacity="1" fill-rule="nonzero"/></g></svg>